<svg height="973.3" viewBox="0 0 1381.3 973.3" width="1381.3" xmlns="http://www.w3.org/2000/svg" xmlns:xlink="http://www.w3.org/1999/xlink"><clipPath id="a"><path d="m0 0h1381.3v973.3h-1381.3z"/></clipPath><clipPath id="b"><path d="m329.5 489.7h345.4v207.3h-345.4z"/></clipPath><clipPath id="c"><path d="m674.9 283h351v206.7h-351z"/></clipPath><clipPath id="d"><path d="m692.5 266.9h2.2v5.9h-2.2z"/></clipPath><clipPath id="e"><path d="m692.6 271.9a3.314 3.314 0 0 0 2.1.9 2.423 2.423 0 0 1 -.9-2c.2-1.1 1.1-3.1 1-3.7a.215.215 0 0 0 -.2-.2c-.8 1.4-2.5 4.4-2 5" transform="translate(-692.1 -266.9)"/></clipPath><linearGradient id="f" gradientUnits="objectBoundingBox" x1="-256.332" x2="-255.962" y1="119.73" y2="119.73"><stop offset="0" stop-color="#ebeaf0"/><stop offset=".005" stop-color="#ebeaf0"/><stop offset=".989" stop-color="#e5e4ec"/><stop offset="1" stop-color="#e5e4ec"/></linearGradient><clipPath id="g"><path d="m692.7 280.3h3.1v3.6h-3.1z"/></clipPath><clipPath id="h"><path d="m644.4 378h12.4v17h-12.4z"/></clipPath><clipPath id="i"><path d="m644.4 395c.1 0 .3-.1.4-.1 4.4-1.8 4.2-5.2 8-8.9 3.9-3.8 4.1-7.3 3.9-7.8-.2-.6-7 .8-10.1 1.5a7.077 7.077 0 0 0 -1.9.8c.2 2.7.9 10.6.5 12.8a2.465 2.465 0 0 1 -.8 1.7" transform="translate(-644.4 -377.6)"/></clipPath><linearGradient id="j" x1="-51.552" x2="-51.472" xlink:href="#f" y1="34.041" y2="34.041"/><clipPath id="k"><path d="m668.9 397.1h24.7v10.6h-24.7z"/></clipPath><clipPath id="l"><path d="m668.9 407.7c3.1 0 5.6-.6 9.6-1.3 4.4-.7 6.3.3 11-1.4a5.8 5.8 0 0 0 4.1-4.8 1.708 1.708 0 0 0 -1.5-1.6c-9.5-.4-15.8-1.2-15.8-1.2s-1.9-.2-4.2-.2l.3 5.7c-.1-.1-1.6 2.5-3.5 4.8" transform="translate(-668.9 -397.1)"/></clipPath><linearGradient id="m" x1="-26.972" x2="-26.931" xlink:href="#f" y1="54.359" y2="54.359"/><clipPath id="n"><path d="m-825.4-309.3h1381.3v973.3h-1381.3z"/></clipPath><clipPath id="o"><path d="m-818.8-277.7h1381.3v973.3h-1381.3z"/></clipPath><clipPath id="p"><path d="m1110.5 728.5c1.6 2.9 3 .5 3.2.4s-.5-2.1.6-3.4a2.808 2.808 0 0 0 -2.7-2.4h-.1c-2.3-.1-2.6 2.5-1 5.4"/></clipPath><linearGradient id="q" gradientUnits="objectBoundingBox" x1="-81.227" x2="-81.154" y1="18.587" y2="18.587"><stop offset="0" stop-color="#f5b7b8"/><stop offset=".122" stop-color="#f5b7b8"/><stop offset="1" stop-color="#fadddd"/></linearGradient><clipPath id="r"><path d="m1126.3 729.3-.7 4.2a1.845 1.845 0 0 0 -.5 1.2c0 .4.3.6.7.6a.368.368 0 0 0 .3-.1l.6-.2c-.2.1-.9.2-1.1-.2a.629.629 0 0 1 0-.6 4.128 4.128 0 0 1 .4-.9v-.1z"/></clipPath><linearGradient id="s" gradientUnits="objectBoundingBox" x1="-178.205" x2="-178.046" y1="38.75" y2="38.75"><stop offset="0" stop-color="#ee7e9d"/><stop offset=".122" stop-color="#ee7e9d"/><stop offset="1" stop-color="#f2a1b3"/></linearGradient><clipPath id="t"><path d="m268.9 359h52.4v69.5h-52.4z"/></clipPath><clipPath id="u"><path d="m268.9 359h52.4v53.5h-52.4z"/></clipPath><clipPath id="v"><path d="m268.9 387.2h52.4v41.3h-52.4z"/></clipPath><clipPath id="w"><path d="m521.6 190.8h19.1v107.8h-19.1z"/></clipPath><clipPath id="x"><path d="m530.3 188.5h14.1v104.8h-14.1z"/></clipPath><clipPath id="y"><path d="m437.9 240.7h19.1v107.8h-19.1z"/></clipPath><clipPath id="z"><path d="m446.6 238.4h14.1v104.8h-14.1z"/></clipPath><g clip-path="url(#a)"><g clip-path="url(#a)"><path d="m891.2 571.9v62.9c12.7 1.8 24.8 5.4 34.8 11-29.7 16.5-76.8 16.3-106.1-.5-10.3-5.9-16.9-13.1-20-20.7l-125 72.4v64l70.2 42.1c-2.4 4.4-7.2 12-7.2 16.5l.6 57.4a25.972 25.972 0 0 0 .1 11.1v.3h.1c2.2 9.1 9.3 17.8 21.4 24.8 29.6 17.1 77.5 17.1 107.1 0 11.1-6.4 18.5-16 21.3-24.3l140.2 84.3 303.3-182c12.8-7.4 19-17.9 19-27.6v-62.9c0-9.7-6.4-19.4-19.1-26.8l-308.8-178.3z" fill="#934492"/></g><g clip-path="url(#a)"><path d="m801.3 836.8 2.4-62.3-128.8-77.5v64z" fill="#ed78a0"/></g><g clip-path="url(#a)"><path d="m888.6 887-.2-64 140.4 84.3v64z" fill="#ed78a0"/></g><g clip-path="url(#a)"><path d="m601.3 654.4a26.951 26.951 0 0 0 3.5-14.4v-60.7c.5-11.6-6.8-23.2-22.1-32-29.6-17.1-77.5-17.1-107.1 0-11.1 6.4-18 14.3-20.8 22.5l-125.3-80.2-308.9 182c-12.8 7.5-20.6 18.5-20.6 28.2l.9 63c0 9.7 6.4 19.4 19.1 26.8l303.8 182.1 129.2-77.3v-64.2c-12.7-1.8-26.2-9.7-36.2-15.3 29.7-16.5 76.8-16.3 106.1.5 10.3 5.9 16.9 16.9 20 24.5l132-80v-62.9z" fill="#ed77a0"/></g><g clip-path="url(#a)"><path d="m323.9 971.6v-64l129.2-77.5v64.2z" fill="#934492"/></g><g clip-path="url(#a)"><path d="m543 839.8v-63.6l131.9-79.2v64z" fill="#934492"/></g><g clip-path="url(#a)"><path d="m674.9 697 42.4-25z" fill="#d2ebf5"/></g><g clip-path="url(#a)"><path d="m947 574c-10.3-6-26.8-11.6-40.6-13.7l119.6-70.6-295-177c-25.5-14.7-81.1-14.7-106.6 0l-294.9 177 124.7 74.8a49.118 49.118 0 0 1 20.5-23.8c23.2-13.4 57.7-16.3 85.7-8.7a90.549 90.549 0 0 1 21.4 8.7c9 5.2 15.2 11.4 18.8 17.9a29.2 29.2 0 0 1 3.4 11.5v1.5a21.831 21.831 0 0 1 -.4 4.4 30.083 30.083 0 0 1 -1.1 4.3 31.183 31.183 0 0 1 -4.5 8.4 53.236 53.236 0 0 1 -16.1 13.8q-1.8 1.05-3.9 2.1c-.1.1-.2.1-.3.2q-1.8.9-3.9 1.8a5.932 5.932 0 0 0 -.8.4c-.1.1-.3.1-.4.2-1.5.6-3.1 1.3-4.7 1.9-1.2.5-2.4.9-3.6 1.3l-4.5 1.5a2.354 2.354 0 0 1 -.8.2c-1.6.5-3.2 1-4.8 1.4a25.046 25.046 0 0 0 -2.6.7c-.1 0-.2 0-.2.1-.4.1-.9.2-1.3.3l-1.5.3c-.2 0-.3.1-.5.1-.7.2-1.5.3-2.2.5-.5.1-1.1.2-1.6.3-.4.1-.7.1-1.1.2-.7.1-1.3.2-2 .3-.2 0-.4.1-.6.1l134.3 80.6 42.3-25 18.2-10.7 83.8-49.5a49.407 49.407 0 0 0 20.6 24.1c20.7 11.9 50.3 15.5 76.4 10.8a94 94 0 0 0 30.7-10.8 59.275 59.275 0 0 0 13.4-10.4c15.3-16.6 10.8-37.6-13.3-51.5" fill="#d2ebf5"/></g><g clip-path="url(#a)"><path d="m1332 673.3-306-183.6-119.6 70.6c13.8 2 30.3 7.7 40.6 13.7 24.1 13.9 28.6 34.9 13.4 51.4a52.3 52.3 0 0 1 -13.4 10.4 98.855 98.855 0 0 1 -30.7 10.8c-26.1 4.8-55.7 1.2-76.4-10.8a49.407 49.407 0 0 1 -20.6-24.1l-102 60.2-42.3 25 128.8 77.5c-14.3 1.6-32.5 7.7-43.6 14.1-29.6 17.1-29.6 44.8 0 61.9s77.5 17.1 107.1 0a48.914 48.914 0 0 0 21.1-25.4l140.4 84.2 162.2-97.2.6-.4 39.2-23.5 101.1-60.6c25.6-14.7 25.6-39.5.1-54.2" fill="#aad9e6"/></g><g clip-path="url(#a)" opacity=".5"><g clip-path="url(#b)"><path d="m674.9 697-345.4-207.3h345.4z" fill="#54bfd3"/></g></g><g clip-path="url(#a)" opacity=".5"><g clip-path="url(#c)"><path d="m674.9 489.7h351.1l-351.1-206.7z" fill="#54bfd3"/></g></g><g clip-path="url(#a)"><path d="m674.9 697-134.4-80.6c13.9-2 30.8-7.7 41.3-13.8 20.6-11.9 26.8-28.9 18.8-43.9-3.5-6.6-9.8-12.7-18.8-17.9a90.551 90.551 0 0 0 -21.4-8.7c-28.1-7.6-62.5-4.7-85.7 8.7a49.118 49.118 0 0 0 -20.5 23.8l-124.7-74.8-308.9 182c-25.5 14.7-28.3 37.5-2.8 52.2l112.3 67.4 38.5 23.1.6.4.2.1 154.5 92.7 129.2-77.5c-13.1-1.8-27-9.9-37.3-15.8-29.6-17.1-29.6-44.8 0-61.9s77.5-17.1 107.1 0c10.3 5.9 16.9 16.1 20 23.7z" fill="#d2ebf5"/></g><g clip-path="url(#a)"><path d="m662.1 58.9 121.9 73.2a10.662 10.662 0 0 1 5.2 9.1v230.5c0 8.7-9.3 10.6-12.6 8.6l-116.7-77.8a2.305 2.305 0 0 1 -1.1-2l-6.5-236.1c-.2-1.6 6.3-7.6 9.8-5.5" fill="#934492"/></g><g clip-path="url(#a)"><path d="m656.7 63.3 120.7 72.5a10.662 10.662 0 0 1 5.2 9.1v230.7a4.757 4.757 0 0 1 -7.2 4.1l-116.7-70.2a13.3 13.3 0 0 1 -6.5-11.6v-231.9a2.984 2.984 0 0 1 4.5-2.7" fill="#ed779e"/></g><g clip-path="url(#a)"><path d="m701.1 317.9c0 6.3 5.1 14.5 11.5 18.1 6.3 3.7 11.5 1.5 11.5-4.9 0-6.3-5.1-14.5-11.5-18.1-6.3-3.7-11.5-1.5-11.5 4.9" fill="#944492"/></g><g clip-path="url(#a)"><path d="m769.6 340.3-106.8-64.1a8.728 8.728 0 0 1 -4.2-7.4v-185.9c0-2 4.8 6 6.5 7.1l99 54c2.6 1.6 9.4 5.2 9.4 8.2v185.9a2.553 2.553 0 0 1 -3.9 2.2" fill="#eeeff4"/></g><g clip-path="url(#a)"><path d="m734.7 119.3a1.884 1.884 0 0 1 -.8-.2l-35.1-21.1a1.612 1.612 0 0 1 1.6-2.8l35.1 21.1a1.657 1.657 0 0 1 .6 2.2 1.419 1.419 0 0 1 -1.4.8" fill="#944492"/></g><g clip-path="url(#a)"><path d="m709.6 326.2 5.2 3a.818.818 0 0 0 1.2-.7v-5a1.012 1.012 0 0 0 -.4-.7l-5.2-3a.818.818 0 0 0 -1.2.7v5a1.013 1.013 0 0 0 .4.7z" fill="none" stroke="#fff" stroke-miterlimit="10"/></g><g clip-path="url(#a)"><path d="m771.2 146.8-109.8-66.2a1.853 1.853 0 0 0 -2.8 1.6v12.8l114.9 69.2v-13.4a4.7 4.7 0 0 0 -2.3-4" fill="#53bfd4"/></g><g clip-path="url(#a)"><path d="m754.3 211.8v6.3l-78.7-47.4v-6.3z" fill="#55bfd5"/></g><g clip-path="url(#a)"><path d="m709.7 200.7-34.1-20.6v-6.3l34.1 20.5z" fill="#55bfd5"/></g><g clip-path="url(#a)"><path d="m754.3 236.9v3.1l-78.7-47.2v-3.2z" fill="#54bfd2"/></g><g clip-path="url(#a)"><path d="m754.3 243.2v3.1l-78.7-47.2v-3.2z" fill="#54bfd2"/></g><g clip-path="url(#a)"><path d="m754.3 249.5v3.2l-78.7-47.3v-3.2z" fill="#54bfd2"/></g><g clip-path="url(#a)"><path d="m754.3 255.8v3.2l-78.7-47.3v-3.2z" fill="#54bfd2"/></g><g clip-path="url(#a)"><path d="m754.3 262.1v3.2l-78.7-47.3v-3.2z" fill="#54bfd2"/></g><g clip-path="url(#a)"><path d="m704.5 241.6-28.9-17.3v-3.2l28.9 17.4z" fill="#54bfd2"/></g><g clip-path="url(#a)"><path d="m754.3 285.1v3.1l-78.7-47.3v-3.1z" fill="#54bfd2"/></g><g clip-path="url(#a)"><path d="m754.3 291.4v3.1l-78.7-47.3v-3.1z" fill="#54bfd2"/></g><g clip-path="url(#a)"><path d="m754.3 297.7v3.1l-78.7-47.3v-3.1z" fill="#54bfd2"/></g><g clip-path="url(#a)"><path d="m754.3 304v3.1l-78.7-47.3v-3.1z" fill="#54bfd2"/></g><g clip-path="url(#a)"><path d="m662.4 142.7 107.2 64.2v-35.5l-107.2-64.6z" fill="#f2a5c3"/></g><g clip-path="url(#a)"><path d="m689.3 277c0 3.3 1.6 6 3.5 6s3.5-2.7 3.5-6-1.6-6-3.5-6-3.5 2.7-3.5 6" fill="#fec9c9"/></g><g clip-path="url(#a)"><g clip-path="url(#d)"><g clip-path="url(#e)" transform="translate(692.1 266.9)"><path d="m0 0h2.7v5.9h-2.7z" fill="url(#f)"/></g></g></g><g clip-path="url(#a)"><path d="m682.1 282.9.2.9.9-.5 1.6-.9 5.3-3.1 4.4-2.5a.349.349 0 0 0 .2-.1l3.3-1.9 1.7-1 1.6-.9v-.9l-1.8 1-.8.4-4.6 2.7-.7.4-3.3 1.9-6.1 3.5-.9.5-.9.5z" fill="#0098ca"/></g><g clip-path="url(#a)"><path d="m673.8 277.4 17.9-10.3 8.6 4.9-18 10.3z" fill="#fff"/></g><g clip-path="url(#a)"><path d="m691.7 267.6 7.6 4.3-16.9 9.8-7.5-4.4zm0-1.1-18.9 10.9 9.5 5.5 19-10.9z" fill="#26addb"/></g><g clip-path="url(#a)" opacity=".15"><g clip-path="url(#g)"><path d="m692.7 283.3.4.1.7.2 1.5.3.5-.4a5.806 5.806 0 0 0 -1.8-3.1c-.1-.1-.2-.1-.2-.2l-.9 2.7z" fill="#cf3838"/></g></g><g clip-path="url(#a)"><path d="m630 283.5c.6.7 2.6 1.2 4.5 1.5 1.9.2 3.9.2 4.4-.2.7-.5.6-15.7.3-27.1-.1-7.1-.3-12.7-.3-12.7s-6.8 3.3-8 14.7c-1.2 11.3-2.2 22.4-.9 23.8" fill="#ffb037"/></g><g clip-path="url(#a)"><path d="m636.6 392.7c.3 1.9 3.7 3.9 7.9 2.4.1 0 .3-.1.4-.1 4.4-1.8 4.2-5.2 8-8.9s4.1-7.3 3.9-7.8c-.2-.6-7 .8-10.1 1.5a7.077 7.077 0 0 0 -1.9.8 47.118 47.118 0 0 0 -7.6 5.9s-1 4.2-.6 6.2" fill="#110812"/></g><g clip-path="url(#a)"><g clip-path="url(#h)"><g clip-path="url(#i)" transform="translate(644.4 377.6)"><path d="m0 0h12.5v17.5h-12.5z" fill="url(#j)"/></g></g></g><g clip-path="url(#a)"><path d="m667.6 407.6h1.2c3.1 0 5.6-.6 9.6-1.3 4.4-.7 6.3.3 11-1.4a5.8 5.8 0 0 0 4.1-4.8 1.708 1.708 0 0 0 -1.5-1.6c-9.5-.4-15.8-1.2-15.8-1.2s-1.9-.2-4.2-.2c-3.4.1-7.8.6-8.3 3.2-.8 4.2.2 7.1 3.9 7.3" fill="#110812"/></g><g clip-path="url(#a)"><g clip-path="url(#k)"><g clip-path="url(#l)" transform="translate(668.9 397.1)"><path d="m0 0h24.8v10.6h-24.8z" fill="url(#m)"/></g></g></g><g clip-path="url(#a)"><path d="m635.5 312.4s1.5 20.5 1.4 28a101.548 101.548 0 0 1 -.8 13.6c-.2 1.7.7 31.8.7 31.8a3.269 3.269 0 0 0 2 2.7 10.906 10.906 0 0 0 7.4.8 10.23 10.23 0 0 0 2.1-.8 3.543 3.543 0 0 0 2-2.7s-.3-29.4 0-34.1c.2-3.3 2.2-14.9 3.4-21.5l9.7 25.4v43.5a3.269 3.269 0 0 0 2 2.7 10.359 10.359 0 0 0 7 .9 9.233 9.233 0 0 0 2.5-.9c1.3-.8 2-1.7 2-2.7l1.4-44s-.3-32-5.9-50.6l-7-1-27.5-4s-3.1 8.3-2.4 12.9" fill="#673a71"/></g><g clip-path="url(#a)"><path d="m635.2 306.2a6.123 6.123 0 0 0 .6.5 16.679 16.679 0 0 0 1.9 1.2c3.1 1.7 9.1 4.2 18.3 4.3q4.35 0 7.5-.3a24.021 24.021 0 0 0 3.2-.5c3.5-.7 5.6-1.8 6.6-2.9a2.8 2.8 0 0 0 .9-1.9c.1-2.3-3.6-15.8-2.6-21.7.4-2.3 1.9-5.7 3.2-9.6a35.732 35.732 0 0 0 1-3.5c.9-3.7 1.4-7.7.2-11.4a13.064 13.064 0 0 0 -2.2-4.2 5.072 5.072 0 0 0 -.7-.6 18.28 18.28 0 0 0 -2.2-1.6c-.5-.3-1-.7-1.7-1.1a30.493 30.493 0 0 0 -3.2-1.8c-.4-.2-.8-.4-1.3-.6a2.994 2.994 0 0 1 -.8-.4c-.5-.2-.9-.4-1.4-.6a3476669265064.501 3476669265064.501 0 0 1 -1.2-.4 15.546 15.546 0 0 0 -2.3-.8c-.1 0-.2-.1-.3-.1a51.381 51.381 0 0 0 -8.2-2.1 30.62 30.62 0 0 0 -3.2-.5 73.054 73.054 0 0 0 -8.5-.7c0 .1-.3.4-.6.9a25 25 0 0 0 -3 13.7c.3 3.3.7 6.3 1.1 9.4a90.8 90.8 0 0 1 .9 16c-.3 5.7-1 12.3-1.5 16.6-.2 2.8-.5 4.7-.5 4.7" fill="#f99f27"/></g><g clip-path="url(#a)"><path d="m667.9 268.6v.2a26.325 26.325 0 0 0 .3 4.1 20.867 20.867 0 0 0 3.8 9.3 1.726 1.726 0 0 1 .3.4 141.249 141.249 0 0 0 4.9 16 34.548 34.548 0 0 0 1.4 3.4c1.8 4 3.8 6.9 5.7 6.8h.2a4.874 4.874 0 0 0 1.1-.4 5.5 5.5 0 0 0 1.6-1.5 14.009 14.009 0 0 0 1.3-1.8 54.6 54.6 0 0 0 4.7-10.6c.7-2.2 1.4-4.3 1.8-6a20.316 20.316 0 0 0 .8-3.6v-.2c0-.2.1-.3.1-.5v-.5a5.806 5.806 0 0 0 -1.8-3.1l-.2-.2a2.181 2.181 0 0 0 -.5-.4 2.421 2.421 0 0 0 -1.3-.4 1.854 1.854 0 0 0 -.7.2c-.2.1-.3.3-.5.5a9.214 9.214 0 0 1 -.7 1.3c-.4.8-.9 2-1.5 3.2-.9 1.9-1.9 4-2.6 5.6a18.4 18.4 0 0 1 -.9 1.9c0-.4-.1-1.3-.2-2.5-.2-1.9-.7-4.6-1.3-7.8a2.486 2.486 0 0 1 -.1-.8l-.3-1.8c-.1-.2-.1-.5-.2-.8-.1-.5-.2-.9-.3-1.3-.2-.7-.3-1.3-.5-2-.3-1.3-.7-2.7-1-4.1a18.665 18.665 0 0 0 -.7-2.2 22.508 22.508 0 0 0 -.8-2.4c-1.6-4.7-3.7-8.6-6-10.2a12.4 12.4 0 0 0 -2.4 2.2 1.44 1.44 0 0 0 -.2.3 14.883 14.883 0 0 0 -3.2 8v.2a7.088 7.088 0 0 0 -.1 1.5" fill="#ffb037"/></g><g clip-path="url(#a)"><path d="m662.1 250.8 1.4-2.9a35.556 35.556 0 0 0 4 .6c1.1 0 3.6-4.1 4.7-9.3 1.2-5.2.3-8.1.7-9.6.5-1.5.9-6.7-.7-8s-23.7.7-23.4 5.8 4.4 11.8 3.7 14.1a19.819 19.819 0 0 1 -2.8 4.8s3.9 4.9 12.4 4.5" fill="#f6bdbe"/></g><g clip-path="url(#a)"><path d="m673.7 227.8s-3.4 3-3.5 4.3c-.1 1.4.4 3.9-2.6.9s-2.4 8.4-5.9 9.6-8.3-.8-9-1.5a19.224 19.224 0 0 1 -5.3-15.6c.4-4.9 7.7-9.3 12.5-10.2 4.8-.8 13.5 2.7 14.1 7 .6 4.4-.3 5.5-.3 5.5" fill="#363a6b"/></g><g clip-path="url(#a)"><path d="m1034 472.2-149.9 87.1c-7.2 4.2-18.9 4.2-26.2 0l-111.8-64.6c-3.6-2.1-5.5-4.9-5.5-7.6l-.1 29.8c0 2.8 1.8 5.5 5.5 7.6l111.9 64.5c7.2 4.2 19 4.2 26.2 0l149.9-87.1c3.6-2.1 5.4-4.8 5.4-7.5l.1-29.8c-.1 2.8-1.9 5.5-5.5 7.6" fill="#ed799f"/></g><g clip-path="url(#a)"><path d="m1033.9 457c7.2 4.2 7.3 11 .1 15.2l-149.9 87.1c-7.2 4.2-18.9 4.2-26.2 0l-111.8-64.6c-7.2-4.2-7.3-11-.1-15.2l149.9-87.1c7.2-4.2 18.9-4.2 26.2 0z" fill="#934492"/></g><g clip-path="url(#a)"><path d="m919.3 483.9-65.2 37.9-65.6-37.9 65.2-37.8z" fill="#5f2468"/></g><g clip-path="url(#a)"><path d="m910.4 211.1-30.2-17.6-.1-28.3 30.2 17.6z" fill="#9c9c9a"/></g><g clip-path="url(#a)"><path d="m950.9 247.7c0-11.7-4.2-19.9-10.8-23.8l-30.2-17.5c6.7 3.9 10.8 12.1 10.8 23.8l.1 92.9c0 11.7-8.2 26-18.4 31.8l-26.3 15.1c-4.5 2.6-8.2 9-8.2 14.2l.2 78.8 30.2 17.6-.2-78.8c0-5.2 3.6-11.6 8.2-14.2l26.2-15.1c10.2-5.9 18.4-20.1 18.4-31.8z" fill="#944492"/></g><g clip-path="url(#a)"><path d="m911.2 199.6c41.3-23.8 74.8-4.7 75 42.7l.1 99.2.2 88.3-35.3 20.4-52.9 30.5-.2-78.8c0-5.2 3.6-11.6 8.2-14.2l26.2-15.1c10.2-5.9 18.4-20.1 18.4-31.8l-.1-92.9c-.1-23.5-16.7-33-37.2-21.2l-3.3 1.9-.1-28.3z" fill="#ed779e"/></g><g clip-path="url(#a)"><path d="m934.2 176.8c-13.6-7.9-32.4-6.8-53.2 5.2l-.9.5 30.2 17.5.9-.5c20.8-12 39.6-13.1 53.2-5.2z" fill="#d2ebf5"/></g><g clip-path="url(#a)"><path d="m919.3 418.8-.1 8.6-65.1 37.9v-8.6z" fill="#aad9e6"/></g><g clip-path="url(#a)"><path d="m854.1 456.7v8.6l-65.6-37.9v-8.6z" fill="#aad9e6"/></g><g clip-path="url(#a)"><path d="m919.3 418.8-65.2 37.9-65.6-37.9 65.2-37.8z" fill="#fff"/></g><g clip-path="url(#a)"><path d="m833.7 339.6h27v17.6c0 2-1.3 4-3.9 5.5-5.3 3-13.8 3-19.1 0-2.6-1.5-3.9-3.5-3.9-5.5v-17.6z" fill="#aad9e6"/></g><g clip-path="url(#a)"><path d="m856.7 334.1c5.3 3 5.3 8 0 11s-13.8 3-19.1 0-5.3-8 0-11c5.3-3.1 13.9-3.1 19.1 0" fill="#c6c5c5"/></g><g clip-path="url(#n)" transform="translate(825.4 309.3)"><path d="m0 0h43.6v28.5h-43.6z" fill="#47b9c9"/></g><g clip-path="url(#a)"><path d="m862.6 329c8.5 4.9 8.5 12.9 0 17.8s-22.3 4.9-30.8 0-8.5-12.9 0-17.8c8.5-5 22.3-5 30.8 0" fill="#47b9c9"/></g><g clip-path="url(#a)"><path d="m862.6 300.4c8.5 4.9 8.5 12.9 0 17.8s-22.3 4.9-30.8 0-8.5-12.9 0-17.8 22.3-4.9 30.8 0" fill="#868686"/></g><g clip-path="url(#o)" transform="translate(818.8 277.7)"><path d="m0 0h56.9v37.2h-56.9z" fill="#aad9e6"/></g><g clip-path="url(#a)"><path d="m867.3 303.2c11.1 6.4 11.1 16.8 0 23.2s-29.1 6.4-40.2 0-11.1-16.8 0-23.2 29.1-6.4 40.2 0" fill="#aad9e6"/></g><g clip-path="url(#a)"><path d="m867.3 266c11.1 6.4 11.1 16.8 0 23.2s-29.1 6.4-40.2 0-11.1-16.8 0-23.2 29.1-6.4 40.2 0" fill="#9c9c9a"/></g><g clip-path="url(#a)"><path d="m911.7 242.7a60.8 60.8 0 1 1 -60.8-60.8 60.773 60.773 0 0 1 60.8 60.8" fill="#612368"/></g><g clip-path="url(#a)"><path d="m883.4 166.6-60.4-35.1 43.9 6.4 60.4 35.1z" fill="#aad9e6"/></g><g clip-path="url(#a)"><path d="m839.9 273.4-60.4-35.1-.2-61.7 60.4 35.1z" fill="#944492"/></g><g clip-path="url(#a)"><path d="m839.7 211.7-60.4-35.1 14.2-28 60.4 35.1z" fill="#aad9e6"/></g><g clip-path="url(#a)"><path d="m853.9 183.7-60.4-35.1 29.5-17.1 60.4 35.1z" fill="#54bfd3"/></g><g clip-path="url(#a)"><path d="m883.4 166.6 43.9 6.4.1 49.9-87.5 50.5-.2-61.7 14.2-28z" fill="#ed779e"/></g><g clip-path="url(#a)"><path d="m944.3 46.3c-5.3.6-19.3-3.9-31.2-9.9-9.4-4.8-14.6-9.1-13.8-11l-49.3 116c-.8 1.9 4.5 6.3 13.8 11 11.9 6.1 25.8 10.5 31.2 9.9 1.1-.1 1.8-.5 2-1l49.3-116c-.2.5-.9.9-2 1" fill="#d2ebf5"/></g><g clip-path="url(#a)"><path d="m913.1 36.4c-11.9-6-17.2-11.4-11.8-12 5.3-.6 19.3 3.9 31.1 9.9 11.9 6.1 17.2 11.4 11.9 12-5.3.5-19.3-3.9-31.2-9.9" fill="#1d1e1c"/></g><g clip-path="url(#a)"><path d="m959.5 27.9c-6.8.7-24.5-4.9-39.5-12.6-11.9-6.1-18.6-11.6-17.6-14l-9.9 23.2c-1 2.4 5.7 7.9 17.6 14 15.1 7.7 32.8 13.3 39.5 12.6 1.4-.2 2.2-.6 2.5-1.2l9.9-23.2c-.3.6-1.1 1-2.5 1.2" fill="#54bfd3"/></g><g clip-path="url(#a)"><path d="m920 15.3c-15.1-7.7-21.8-14.5-15-15.2s24.5 4.9 39.5 12.6c15.1 7.7 21.8 14.5 15 15.2s-24.5-4.9-39.5-12.6" fill="#47b9c9"/></g><g clip-path="url(#a)"><path d="m895.2 257.3c-2.1-1.8-6-1.5-11.1 1.5-9 5.2-18.2 16.4-20.5 25.1-1 3.7-.5 6.4 1 7.7l32.5 28.9c-1.5-1.4-2-4-1-7.7 2.3-8.7 11.4-19.9 20.5-25.1 5.1-3 9.1-3.3 11.1-1.5z" fill="#aad9e6"/></g><g clip-path="url(#a)"><path d="m916.5 287.7c9-5.2 14.4-2.4 12.2 6.2-2.3 8.7-11.4 19.9-20.4 25.1s-14.5 2.4-12.2-6.2 11.4-19.9 20.4-25.1" fill="#47b9c9"/></g><g clip-path="url(#a)"><path d="m926.4 289.9c-1.7-1.5-5.1-1.2-9.4 1.3-7.6 4.4-15.3 13.9-17.3 21.2q-1.2 4.8.9 6.6l8.2 7.3c-1.3-1.2-1.7-3.4-.9-6.6 1.9-7.3 9.7-16.8 17.3-21.2 4.3-2.5 7.7-2.8 9.4-1.3z" fill="#aad9e6"/></g><g clip-path="url(#a)"><path d="m907.9 319.7c1.9-7.3 9.7-16.8 17.3-21.2s12.2-2 10.3 5.3-9.7 16.8-17.3 21.2-12.2 2-10.3-5.3" fill="#47b9c9"/></g><g clip-path="url(#a)"><path d="m931.4 305.4c-.9-.8-2.7-.7-5 .7-4 2.3-8.2 7.4-9.2 11.3-.4 1.7-.2 2.9.5 3.5l13.7 12.2c-.7-.6-.9-1.8-.5-3.5 1-3.9 5.2-9 9.2-11.3 2.3-1.3 4.1-1.5 5-.7z" fill="#aad9e6"/></g><g clip-path="url(#a)"><path d="m940.1 318.3c4.1-2.3 6.5-1.1 5.5 2.8s-5.2 9-9.2 11.3-6.5 1.1-5.5-2.8 5.2-8.9 9.2-11.3" fill="#47b9c9"/></g><g clip-path="url(#a)"><path d="m1098.3 340.8c-4.3-2.5-7.9-.5-7.9 4.5l-.9 162.2c0 5 3.5 11.1 7.8 13.6l255.3 148.3c4.4 2.5 7.9.5 7.9-4.5l.9-162.2c0-5-3.5-11.1-7.8-13.7z" fill="#d2ebf5"/></g><g clip-path="url(#a)"><path d="m907.1 626.8a1.268 1.268 0 0 0 .1.6v.6a4.33 4.33 0 0 1 .1.5c.1.2.1.4.2.5.1.2.1.3.2.5l.3.6c0 .1.2.3.2.4a4.354 4.354 0 0 1 .4.7 1.38 1.38 0 0 1 .3.4 5.01 5.01 0 0 0 .7.8l.4.4c.1.2.3.3.5.5a1.275 1.275 0 0 0 .6.4 2.093 2.093 0 0 0 .6.4l.9.6 100.2 58.2v-6l22.2-12.8-32-18.7v-2.4l-2.1 1.2-43.5-25.4.1-15.2 20.4-11.7 4.7 2.7v-5.4l6.8-3.9 13.6-7.8 23.6-13.6 5.9 3.4v-6.8l20.4-11.7 4.6 2.6v-5.3l20.4-11.7 21.1 12.3v4.7l4.1-2.3 21.1 12.3v4.7l4-2.3 21.1 12.3v4.7l4-2.3 21.1 12.3v4.7l4.1-2.3 21.1 12.3v4.7l4-2.3 21.1 12.3v4.7l4.1-2.3 21.1 12.3v4.7l4-2.3 21.1 12.3v4.6l4-2.3 21.1 12.3-.1 15.2-11.8 6.8 5 2.9v-5.3l20.4-11.7 21 12.3-.1 15.2-20.4 11.7-4.5-2.7v5.3l-20.4 11.7-4.6-2.7v5.3l-20.4 11.7-4.5-2.7v5.3l-20.4 11.7-4.7-2.7v5.4l-20.4 11.7-44.7-26.1v-3l-2.6 1.5-32.9-19.2v-3.5l-3 1.7-12-7v5.8l-22.2 12.8 82 47.6a12.271 12.271 0 0 0 2.6 1.2c.3.1.5.2.8.3a12.083 12.083 0 0 0 1.8.5c.5.2 1.1.3 1.7.5.8.1 1.6.3 2.4.4h.5c1.1.1 2.1.2 3.1.2h.5a28.308 28.308 0 0 0 3-.2h.5a24.989 24.989 0 0 0 2.9-.5c.2 0 .4-.1.6-.1a27.581 27.581 0 0 0 2.7-.8c.1 0 .2-.1.3-.1a25.916 25.916 0 0 0 2.9-1.4l153.4-88.6c3.6-2.1 5.4-4.8 5.4-7.5 0 5-.1 10.1-.1 15.2 0 2.7-1.8 5.4-5.4 7.5l-153.4 88.6a23.937 23.937 0 0 1 -2.8 1.3h-.1c-.1 0-.2.1-.3.1-.6.2-1.2.4-1.9.6-.3.1-.5.1-.8.2a1.421 1.421 0 0 0 -.6.2c-.2 0-.4.1-.6.1l-1.8.3c-.2 0-.3.1-.5.1h-.5c-.3 0-.5.1-.8.1-.6 0-1.2.1-1.8.1h-2c-.7 0-1.3-.1-2-.1h-.2a1.087 1.087 0 0 1 -.5-.1c-.6-.1-1.1-.1-1.7-.2a2.542 2.542 0 0 1 -.7-.2c-.6-.1-1.1-.3-1.6-.4-.3-.1-.7-.1-1-.2l-.9-.3c-.2-.1-.5-.2-.7-.3-.9-.4-1.8-.8-2.6-1.2l-266.1-154.8a2.09 2.09 0 0 1 -.6-.4c-.1-.1-.2-.2-.3-.2-.2-.1-.4-.3-.6-.4a1.2 1.2 0 0 1 -.5-.5 1.755 1.755 0 0 1 -.5-.4c-.1-.1-.2-.1-.2-.2-.1-.1-.1-.2-.2-.3a4.621 4.621 0 0 1 -.7-.7c-.1 0-.2-.2-.2-.2a.1.1 0 0 0 -.1-.1 1.612 1.612 0 0 1 -.4-.7c-.1-.1-.2-.2-.2-.3v-.1l-.3-.6c-.1-.1-.1-.2-.2-.3v-.1c-.1-.2-.1-.4-.2-.6 0-.1-.1-.3-.1-.4v-.1c0-.2-.1-.4-.1-.6v-.5c0-5 0-10.1 0-15.2" fill="#944492"/></g><g clip-path="url(#a)"><path d="m912.5 619.3 153.4-88.6c7.2-4.2 19-4.1 26.2.1l265.9 154.5c7.2 4.2 7.2 11 0 15.2l-153.4 88.5c-7.2 4.2-19 4.1-26.2-.1l-265.8-154.4c-7.2-4.2-7.3-11-.1-15.2" fill="#ed779e"/></g><g clip-path="url(#a)"><path d="m1088.6 579.4-20.4 11.7 21.1 12.3 20.4-11.7z" fill="#f5f3f4"/></g><g clip-path="url(#a)"><path d="m1056.1 589.3-20.4 11.7 21.1 12.3 20.4-11.7z" fill="#f5f3f4"/></g><g clip-path="url(#a)"><path d="m1026.7 573.7-23.6 13.6-13.5 7.8-6.9 3.9 35.6 20.8 20.4-11.7-10.9-6.4 23.6-13.6z" fill="#f5f3f4"/></g><g clip-path="url(#a)"><path d="m1079.8 603.1-20.4 11.8 21.1 12.3 20.4-11.8z" fill="#f5f3f4"/></g><g clip-path="url(#a)"><path d="m978 601.7-20.4 11.7 43.5 25.4 20.4-11.7z" fill="#f5f3f4"/></g><g clip-path="url(#a)"><path d="m1023.6 628.3-20.5 11.7 33 19.2 20.4-11.7z" fill="#f5f3f4"/></g><g clip-path="url(#a)"><path d="m1088.6 637.2-20.4 11.7 21 12.3 20.4-11.7z" fill="#f5f3f4"/></g><g clip-path="url(#a)"><path d="m1078.1 544.3-20.4 11.7 21 12.3 20.4-11.7z" fill="#f5f3f4"/></g><g clip-path="url(#a)"><path d="m1103.1 558.9-20.4 11.7 21.1 12.3 20.4-11.7z" fill="#f5f3f4"/></g><g clip-path="url(#a)"><path d="m1053.1 558.6-20.4 11.7 32.6 19.1 20.4-11.7z" fill="#f5f3f4"/></g><g clip-path="url(#a)"><path d="m1128.2 573.5-20.4 11.8 21.1 12.3 20.4-11.8z" fill="#f5f3f4"/></g><g clip-path="url(#a)"><path d="m1153.3 588.2-20.4 11.7 21 12.3 20.5-11.7z" fill="#f5f3f4"/></g><g clip-path="url(#a)"><path d="m1112.6 593.4-20.4 11.7 21.1 12.3 20.4-11.7z" fill="#f5f3f4"/></g><g clip-path="url(#a)"><path d="m1178.4 602.8-20.4 11.8 21.1 12.3 20.4-11.8z" fill="#f5f3f4"/></g><g clip-path="url(#a)"><path d="m1136.6 607.4-20.4 11.7 21.1 12.3 20.4-11.7z" fill="#f5f3f4"/></g><g clip-path="url(#a)"><path d="m1041.4 609.6-20.4 11.8 21.1 12.3 20.4-11.7z" fill="#f5f3f4"/></g><g clip-path="url(#a)"><path d="m1203.5 617.5-20.4 11.7 21.1 12.3 20.3-11.7z" fill="#f5f3f4"/></g><g clip-path="url(#a)"><path d="m1103.5 617-20.4 11.7 21.1 12.3 20.4-11.7z" fill="#f5f3f4"/></g><g clip-path="url(#a)"><path d="m1160.6 621.4-20.5 11.7 21.1 12.3 20.4-11.7z" fill="#f5f3f4"/></g><g clip-path="url(#a)"><path d="m1065.1 623.5-20.4 11.7 21.1 12.3 20.4-11.7z" fill="#f5f3f4"/></g><g clip-path="url(#a)"><path d="m1127.2 630.8-20.4 11.8 21.1 12.2 20.4-11.7z" fill="#f5f3f4"/></g><g clip-path="url(#a)"><path d="m1228.5 632.1-20.4 11.8 21.1 12.2 20.4-11.7z" fill="#f5f3f4"/></g><g clip-path="url(#a)"><path d="m1184.5 635.4-20.4 11.7 21.1 12.3 20.4-11.7z" fill="#f5f3f4"/></g><g clip-path="url(#a)"><path d="m1150.9 644.7-20.4 11.7 21.1 12.3 20.4-11.7z" fill="#f5f3f4"/></g><g clip-path="url(#a)"><path d="m1253.6 646.8-20.4 11.7 21.1 12.3 20.4-11.7z" fill="#f5f3f4"/></g><g clip-path="url(#a)"><path d="m1208.5 649.4-20.4 11.7 21.1 12.3 20.4-11.7z" fill="#f5f3f4"/></g><g clip-path="url(#a)"><path d="m1113 651.5-20.4 11.7 21.1 12.3 20.4-11.7z" fill="#f5f3f4"/></g><g clip-path="url(#a)"><path d="m1174.6 658.5-20.4 11.7 21.1 12.3 20.4-11.7z" fill="#f5f3f4"/></g><g clip-path="url(#a)"><path d="m1278.7 661.4-20.4 11.8 21.1 12.3 20.4-11.8z" fill="#f5f3f4"/></g><g clip-path="url(#a)"><path d="m1232.5 663.4-20.4 11.7 21 12.3 20.5-11.7z" fill="#f5f3f4"/></g><g clip-path="url(#a)"><path d="m1136.5 665.2-20.4 11.7 21 12.3 20.5-11.7z" fill="#f5f3f4"/></g><g clip-path="url(#a)"><path d="m1198.3 672.3-20.4 11.8 21.1 12.3 20.4-11.8z" fill="#f5f3f4"/></g><g clip-path="url(#a)"><path d="m1160.2 679-20.4 11.7 21 12.3 20.4-11.7z" fill="#f5f3f4"/></g><g clip-path="url(#a)"><path d="m1313.3 681.6-20.4 11.8 21.1 12.3 20.3-11.8z" fill="#f5f3f4"/></g><g clip-path="url(#a)"><path d="m1222 686.2-20.4 11.7 21.1 12.3 20.4-11.7z" fill="#f5f3f4"/></g><g clip-path="url(#a)"><path d="m1058.6 648.8-20.4 11.7 92.6 54 20.4-11.7z" fill="#f5f3f4"/></g><g clip-path="url(#a)"><path d="m1183.6 692.7-20.4 11.7 21.1 12.3 20.4-11.7z" fill="#f5f3f4"/></g><g clip-path="url(#a)"><path d="m1257.5 678-20.4 11.7 51.9 30.3 20.4-11.7z" fill="#f5f3f4"/></g><g clip-path="url(#a)"><path d="m1042.9 669.3-30.1 17.4 75.8 44 30.1-17.4z" fill="#f5f3f4"/></g><g clip-path="url(#a)"><path d="m1245.8 700.1-20.4 11.7 38.6 22.5 20.4-11.7z" fill="#f5f3f4"/></g><g clip-path="url(#a)"><path d="m1154.2 704.6-20.4 11.7 32.9 19.2 20.4-11.7z" fill="#f5f3f4"/></g><g clip-path="url(#a)"><path d="m1207.6 706.7-20.4 11.7 51.8 30.3 20.5-11.7z" fill="#f5f3f4"/></g><g clip-path="url(#a)"><path d="m1189.7 725.3-20.4 11.7 44.6 26.1 20.5-11.7z" fill="#f5f3f4"/></g><g clip-path="url(#a)"><path d="m1085.1 322.5a2.188 2.188 0 0 0 .5-.3c1.3-.7 2.5-1.4 3.8-2.2 1.3-.7 2.5-1.5 3.8-2.2 2.4-1.4 5.7-1.2 9.4.9l265.8 154.5c7.2 4.2 13.1 14.4 13 22.7l-1 177.1c0 4.1-1.5 7-3.9 8.4-3.1 1.8-6.3 3.6-9.4 5.4 2.4-1.4 3.8-4.3 3.9-8.4l1-177.1c0-8.3-5.8-18.5-13.1-22.8l-265.9-154.3c-3.6-2.1-6.9-2.3-9.4-.9.6-.3 1-.6 1.5-.8" fill="#944492"/></g><g clip-path="url(#a)"><path d="m1106.2 360.9 125.3 75.2a15.066 15.066 0 0 1 7.3 12.9v136l-141.7-85v-134a5.979 5.979 0 0 1 9.1-5.1" fill="#fff"/></g><g clip-path="url(#a)"><path d="m1106.2 360.9 125.3 75.2a15.066 15.066 0 0 1 7.3 12.9v16.8l-141.7-85v-14.8a5.979 5.979 0 0 1 9.1-5.1" fill="#e73076"/></g><g clip-path="url(#a)"><path d="m1358.9 478.6c7.2 4.2 13.1 14.5 13.1 22.8l-1 177.1c-.1 8.3-6 11.7-13.2 7.5l-265.8-154.4c-7.2-4.2-13.1-14.4-13.1-22.8l1-177.1c0-8.3 6-11.7 13.2-7.5zm-269.5 28.9c0 5 3.5 11.1 7.8 13.6l255.3 148.3c4.4 2.5 7.9.5 7.9-4.5l.9-162.2c0-5-3.5-11.1-7.8-13.7l-255.3-148.3c-4.3-2.5-7.9-.5-7.9 4.5z" fill="#f6bfd3"/></g><g clip-path="url(#a)"><path d="m1157.7 455.1s-12.6-32.5-1.5-47.9c0 0 26.9-10.5 34-6s16.4 20.5 11.8 75.8z" fill="#383937"/></g><g clip-path="url(#a)"><path d="m1087.8 483.4c.7-3.8 6.8-5.9 13.6-4.7 6.9 1.2 11.9 5.3 11.2 9.1s-6.8 5.9-13.6 4.7c-6.9-1.2-11.9-5.3-11.2-9.1" fill="#875631"/></g><g clip-path="url(#a)"><path d="m1110 487.1a10.39 10.39 0 0 0 .5-5.5s20.9 7.9 23.5 9.3c1.5-4.6 4.1-14 6.8-20.9 7-17.3 11.7-22.4 18.7-19.6 8.7 7-5 21.7-5.7 33.1-3.1 12.7-9.2 23.6-12.3 25.4a1.379 1.379 0 0 1 -.4.3c-3.4 1.1-6.3.2-12.6-2.1-8.6-3.1-23-13.4-23-13.4a20.166 20.166 0 0 0 4.5-6.6" fill="#47b9c9"/></g><g clip-path="url(#a)"><path d="m1196.4 516.2c-2.5-12.1 4.7-25.3 3.7-39.4 1.1-11.7-18.6-23.1-18.6-23.1l-19.1-10.8s-8.9 6.7-14.4 14.2c-10.4 14.2-6.1 43.9-7.7 56.9-.2 1.7-7.2 8-7.2 8l73.3 45s-8.4-43.2-10-50.8" fill="#aad9e6"/></g><g clip-path="url(#a)"><path d="m1135.8 510.4c.7-3.8 6.8-5.9 13.6-4.7 6.9 1.2 11.9 5.3 11.2 9.1s-6.8 5.9-13.6 4.7c-6.9-1.2-11.9-5.3-11.2-9.1" fill="#875631"/></g><g clip-path="url(#a)"><path d="m1208.4 500.3c-.7-14.4 1.6-26.1-12.8-33.3-7.3.8-12.2 30.8-9.9 42.3-2.1.1-28.3-1.4-28.3-1.4s-4.2 15.1.4 17.8c8 .9 22.8 3.1 29.5 3.1s17.5.8 20.6-7.1c1.4-3.5.7-17.3.5-21.4" fill="#47b9c9"/></g><g clip-path="url(#a)"><path d="m1162.7 445.6c-.3-2.9-.8-5.8-.8-5.8l13.1-13.6s12.1 1.2 9.7 8.3c-2.4 7-2.6 9.1-2.9 17.9-.2 5.4-4.5 7.8-9 8.3a14.756 14.756 0 0 1 -7.5-1c-5-2.4-2.9-6.3-2.3-8.4a44.731 44.731 0 0 0 -.3-5.7" fill="#875631"/></g><g clip-path="url(#a)"><path d="m1170.5 396.7s-12.4 2.6-15.7 12.1c-3.2 9.5-2.7 9.9-2.5 13.7s-1 9.1.4 15.3 2.9 11.4 5.7 12.4c2.8.9 18.9-2.3 24.7-13.3s11.4-21 6.9-31.2c-3-7-13.2-10.6-19.5-9" fill="#bb6f49"/></g><g clip-path="url(#a)"><path d="m1153.2 426.6c0 1.2.4 2.1.9 2.1s.9-1 .9-2.1c0-1.2-.4-2.1-.9-2.1s-.9 1-.9 2.1" fill="#fff"/></g><g clip-path="url(#a)"><path d="m1155.3 432.4c-.6.4-1.6-.2-2.3-1.4s-.7-2.4-.1-2.8 1.6.2 2.3 1.4c.6 1.1.7 2.4.1 2.8" fill="#bb6f49"/></g><g clip-path="url(#a)"><path d="m1156.4 435.9a1.845 1.845 0 0 1 -1.5-2l1.3-7.9a1.768 1.768 0 1 1 3.5.5l-1.4 7.9a1.544 1.544 0 0 1 -1.9 1.5" fill="#875631"/></g><g clip-path="url(#a)"><path d="m1156.6 436.9-2.1-.7a1.628 1.628 0 0 1 -1-2.2 2.268 2.268 0 0 1 2.9-1.4l1 .4a2.268 2.268 0 0 1 1.4 2.9 1.7 1.7 0 0 1 -2.2 1" fill="#875631"/></g><g clip-path="url(#a)"><path d="m1159.8 426.5-1.3 7.3a2.038 2.038 0 0 1 .2 2 1.714 1.714 0 0 1 -1.6 1.1 1.268 1.268 0 0 1 -.6-.1l-1-.4c.4.1 1.5.4 2.1-.3a1.5 1.5 0 0 0 .4-1.1 4.974 4.974 0 0 0 -.1-1.6l.1-.2 1.7-6.9a.31.31 0 0 1 .1.2" fill="#764729"/></g><g clip-path="url(#a)"><path d="m1165.6 430.9c-.1.8-.2 2.5-.2 2.5a3.414 3.414 0 0 0 -1.3-.5c-.8 0-1.5.2-1.2-2.3.1-1.1.7-2 1.5-2s1.3 1.2 1.2 2.3" fill="#fff"/></g><g clip-path="url(#a)"><path d="m1166.2 433.8s-1.6 1.5-2.9 1.3-2.4-1-2.3-1.7 1.2-1.1 2.6-.9a8.063 8.063 0 0 1 2.6 1.3" fill="#bb6f49"/></g><g clip-path="url(#a)"><path d="m1161.3 423.8a8.48 8.48 0 0 1 7.2 2.9c.6.7-.4 1.7-1 1a7.32 7.32 0 0 0 -6.2-2.5c-.9.1-.9-1.3 0-1.4" fill="#383937"/></g><g clip-path="url(#a)"><path d="m1155.2 422.7c-.9-.8-2.1-2.2-3.2-2.4-.9-.2-.5-1.5.4-1.4 1.4.2 2.8 1.8 3.8 2.7a.744.744 0 0 1 -1 1.1" fill="#383937"/></g><g clip-path="url(#a)"><path d="m1160.9 443c-2.3-.6-6.2-3.7-6.9-2.7-1.2 2.7 4.4 4.6 6.4 3.3a2.2 2.2 0 0 0 .5-.6" fill="#875631"/></g><g clip-path="url(#a)"><path d="m1159.7 442a21.165 21.165 0 0 0 -2.1-1.1 12.67 12.67 0 0 1 -1.8-.6 7.49 7.49 0 0 1 -1.8-1.3c-1.9 2.8 6.1 4.7 6.9 3.9.5.1-1.2-.9-1.2-.9" fill="#764729"/></g><g clip-path="url(#a)"><path d="m1191.1 406.4c-2.4-6.2-5.4-7.4-5.4-7.4s-2.9-3.2-11.1-3.2a25.694 25.694 0 0 0 -17.8 7.5c-4.4 4.8-2.6 7.4-2.6 7.4v-.1a1.868 1.868 0 0 1 2.4-1c2.1.8 3 2.5 4.7 3.1 12.1 4.3 14.5 1 15.5 6.6s1.5 7.6 4.1 6.7c4.1-1.4 3.9-.5 5.9 2.2a73.52 73.52 0 0 1 -2.7 7.9s.1 2.5 4.7-7.7c1.7-4 6.2-9.7 2.3-22" fill="#383937"/></g><g clip-path="url(#a)"><path d="m1182.4 427.6a4.851 4.851 0 0 1 5.7-2.6c4 1.1 3.2 5.6-1 9.7-4.3 4.1-5.3-.7-5.5-1-.2-.4 1.9-3.3.8-6.1" fill="#bb6f49"/></g><g clip-path="url(#a)"><path d="m1183.9 428.1s1.8-2.1 3.5-1.2c2.6 1.4-1.2 5.7-1.5 6.3-.4.6-2.3.3-2.5-1-.4-1.3 1.8-2.4.5-4.1" fill="#875631"/></g><g clip-path="url(#a)"><path d="m1177.5 422.8a26.214 26.214 0 0 1 .6 8.3 20.451 20.451 0 0 0 .9 8s-.8-5 0-7.9 2.3-4.4 2.1-6c-.3-1.6-3.6-2.4-3.6-2.4" fill="#383937"/></g><g clip-path="url(#a)"><path d="m1184.8 435.2a.9.9 0 1 1 -.9-.9.9.9 0 0 1 .9.9" fill="#f8fbfd"/></g><g clip-path="url(#a)"><path d="m1153.4 426.8c-.1.5 0 .9.1.9.2 0 .4-.3.4-.8.1-.5 0-.9-.1-.9-.1-.1-.3.3-.4.8" fill="#6263a9"/></g><g clip-path="url(#a)"><path d="m1163.4 431.2c-.1.5 0 .9.1.9.2 0 .4-.3.4-.8.1-.5 0-.9-.1-.9-.2 0-.4.3-.4.8" fill="#6263a9"/></g><g clip-path="url(#a)"><path d="m1106.1 271 72.9 42.1c4.8 2.8 8.7 9.6 8.7 15.1v44.4c0 5.6-7 10.2-11.8 7.4l-27.1-19.8-30.8-17.8-12-6.9c-4.8-2.8-8.7-9.5-8.7-15.1l-5.2-43.6c.1-5.5 9.2-8.5 14-5.8" fill="#f39721"/></g><g clip-path="url(#a)"><path d="m1100.8 273.3 72.9 42.1c4.8 2.8 8.7 9.5 8.7 15.1v44.4c0 5.6-3.9 7.8-8.7 5l-30.2-17.4v31.8l-30.8-49.6-12-6.9c-4.8-2.8-8.7-9.5-8.7-15.1v-44.4c.1-5.5 4-7.8 8.8-5" fill="#fbc540"/></g><g clip-path="url(#a)"><path d="m1103.1 289.1 66.5 39.1v2.5l-66.5-39z" fill="#f3f1f8"/></g><g clip-path="url(#a)"><path d="m1103.1 297.4 66.5 39.1v2.5l-66.5-39z" fill="#f3f1f8"/></g><g clip-path="url(#a)"><path d="m1103.1 305.7 66.5 39.1v2.5l-66.5-39z" fill="#f3f1f8"/></g><g clip-path="url(#a)"><path d="m1103.1 314 66.5 39.1v2.5l-66.5-39z" fill="#f3f1f8"/></g><g clip-path="url(#a)"><path d="m1103.1 322.3 66.5 39.1v2.5l-66.5-39z" fill="#f3f1f8"/></g><g clip-path="url(#a)"><path d="m1118.2 839.8c3 2.7 6.6 1.6 10.6-1.9s11.3-13.1 16.9-15.4c8.2-3.3 13.2-6.9 18-7.4 6-.7 8.4-6 4.9-9.9s-33.3.2-45.6 10.5c-12.5 10.2-8 21.2-4.8 24.1" fill="#e9e9e9"/></g><g clip-path="url(#a)"><path d="m1143.8 759.8c2.5 6.2 5.8 22.3 5.6 24.3-.4 4.2-7.4 8.4-8.6 5.1-1.4-3.9-4.1-12.8-4.9-15.1a191.543 191.543 0 0 1 -5.6-18.8c-.4-6.9-3.8-18.6-8.4-23.3 0 0 3.9-2 6.8.6a44.2 44.2 0 0 1 7.7 9.9c.9 1.9 5.5 12.5 7.4 17.3" fill="#e9e9e9"/></g><g clip-path="url(#a)"><path d="m1179.7 865.8c3 2.9 3.9 3.8 6.7 6.5 1.6 1.6.3 3-2.8 2.9a51.753 51.753 0 0 1 -12.3-2.7 73.4 73.4 0 0 1 -9.2-4.8 5.775 5.775 0 0 1 -2.7-3.5v-4.9l14.7.6a70.377 70.377 0 0 0 5.6 5.9" fill="#3d2927"/></g><g clip-path="url(#a)"><path d="m1153.8 881.1c3 2.9 3.9 3.8 6.7 6.5 1.6 1.6.3 3-2.8 2.9a51.753 51.753 0 0 1 -12.3-2.7 73.4 73.4 0 0 1 -9.2-4.8 5.775 5.775 0 0 1 -2.7-3.5v-8.5l14.7 4.3a61.927 61.927 0 0 0 5.6 5.8" fill="#3d2927"/></g><g clip-path="url(#a)"><path d="m1101.2 796.2 29.4-11.3a85.772 85.772 0 0 0 13.7 10c5.2 3.1 19.4 11.5 24 14.7 2.8 2 4.1 6.3 5.2 15.9 1.8 16 3.1 34.2 3.1 34.2s-3.2 4.5-10.4 4.4a28.5 28.5 0 0 1 -9.7-1.7l-1.1-36.7-24.1-13.9s13.7 8.5 15.6 16c1.6 6 2.1 10.7 2.3 18.2.5 16.2.7 26.8.7 26.8s-1.1 5.4-8.3 5.4c-5.5 0-10.1-4.5-10.1-4.5l-1.5-37.2s-20.8-14.8-26.3-21.1c-5.9-7.1-2.5-19.2-2.5-19.2" fill="#5367ad"/></g><g clip-path="url(#a)"><path d="m1125.5 733.6s8.8 7.1 9.8 17.2c.4 4.1 2.9 17.3 3.1 28 0 2.3 3.4 8 6.3 9.9 8 5.2 23.8 16.6 23.8 16.6s-13.4-3-22.7 6a56.7 56.7 0 0 0 -9.6-2.6 44.529 44.529 0 0 1 3.7 6.5c-2.6.8-9.3-1-15.1 6-10 12-6.6 18.7-6.6 18.7s-14.7-14.5-17.9-20.6c-5.3-10-5.5-19.3-5-22.7.9-6.1 2.7-12.9 2.2-16.5-1.5-11.2-.3-30.3 0-33.3.7-4.9 11.9-10.3 11.9-10.3s7.9-6.1 16.1-2.9" fill="#fff"/></g><g clip-path="url(#a)"><path d="m1120.4 732.7s5.1 0 9.5 8.5c1.6 3 2.6 4.7 2.6 4.7l-2.6 2.5 3.7 1.8s1.3 12.9.3 18.2c-1.2 5.9-7.2 16.6-7.2 16.6s-3.9-12-5.6-15-8.1-11.3-8.1-11.3l3.2-4.9-5.3-1.7s-7.4-9.3-6.6-12.1a8.894 8.894 0 0 1 6.5-6.3z" fill="#e9e9e9"/></g><g clip-path="url(#a)"><path d="m1126.5 742.2a109.085 109.085 0 0 1 3.2 12.1c1.1 5.7-2 24.4-2 24.4s-2.8-18.3-6.6-23.6a110.35 110.35 0 0 0 -10.2-12.2s11.7-2.1 15.6-.7" fill="#e7d5d5"/></g><g clip-path="url(#a)"><path d="m1124.3 743.4.6 4.9a13.248 13.248 0 0 1 3.5 6.2c.6 3.4.4 16.2.4 16.2l-1.2 8-1.7-5.5s-1.3-7.6-2.5-12.3a33.69 33.69 0 0 0 -.5-4.3 31.842 31.842 0 0 1 -.9-7.1l-3.1-3.7 2.9-3.4z" fill="#ea5898"/></g><g clip-path="url(#a)"><path d="m1110.8 733.6s8.7-1.1 11.8 1.8c5 1.7 4.5 9.2 4.5 9.2l-5.1-2.1-1.9 5.8s-7-3.2-9.6-6c-.2 0-3.2-5.3.3-8.7" fill="#fff"/></g><g clip-path="url(#a)"><path d="m1114.8 804.8h1.2l26.6-15.3a6.279 6.279 0 0 1 5.5.2l17.9 10.3a2.091 2.091 0 0 1 .6.4h.8v1.5a1.478 1.478 0 0 1 -.9 1.3l-26.8 15.5a6.279 6.279 0 0 1 -5.5-.2l-17.9-10.3a2.192 2.192 0 0 1 -1.3-1.8v-1.6z" fill="#351d2d"/></g><g clip-path="url(#a)"><path d="m1139.6 817.3 26.8-15.5c1.4-.8 1.2-2.2-.4-3.2l-17.9-10.3a6.279 6.279 0 0 0 -5.5-.2l-26.8 15.5c-1.4.8-1.2 2.2.4 3.2l17.9 10.3a6.279 6.279 0 0 0 5.5.2" fill="#68435e"/></g><g clip-path="url(#a)"><path d="m1144.8 788.6 18.8 10.9-28.1 16.1-18.9-10.8z" fill="#1e1e1e"/></g><g clip-path="url(#a)"><path d="m1146.4 788.4 1.4.9-28.1 16.1-1.5-.8z" fill="#fff"/></g><g clip-path="url(#a)"><path d="m1124.9 803.5 1.4.9-4.2 2.4-1.5-.8z" fill="#fff"/></g><g clip-path="url(#a)"><path d="m1129.6 800.8 1.4.9-3 1.7-1.5-.8z" fill="#fff"/></g><g clip-path="url(#a)"><path d="m1133.3 798.7 1.4.8-2.9 1.8-1.5-.8z" fill="#fff"/></g><g clip-path="url(#a)"><path d="m1137 796.6 1.4.8-2.9 1.7-1.5-.8z" fill="#fff"/></g><g clip-path="url(#a)"><path d="m1128.1 807.6 1.4.8-2.1 1.2-1.5-.8z" fill="#fff"/></g><g clip-path="url(#a)"><path d="m1131.1 805.8 1.5.8-2.1 1.2-1.5-.8z" fill="#fff"/></g><g clip-path="url(#a)"><path d="m1134.9 803.6 1.5.9-3 1.7-1.5-.8z" fill="#fff"/></g><g clip-path="url(#a)"><path d="m1130.6 809 1.4.8-2.1 1.2-1.5-.8z" fill="#fff"/></g><g clip-path="url(#a)"><path d="m1133.6 807.2 1.5.8-2.1 1.2-1.5-.8z" fill="#fff"/></g><g clip-path="url(#a)"><path d="m1133.2 810.4 1.4.8-2.1 1.2-1.5-.8z" fill="#fff"/></g><g clip-path="url(#a)"><path d="m1136.2 808.6 1.5.8-2.1 1.2-1.5-.8z" fill="#fff"/></g><g clip-path="url(#a)"><path d="m1137.4 805.1 1.4.8-2.9 1.7-1.5-.8z" fill="#fff"/></g><g clip-path="url(#a)"><path d="m1138.5 801.5 1.5.9-3 1.7-1.5-.8z" fill="#fff"/></g><g clip-path="url(#a)"><path d="m1142.2 799.4 1.5.8-3 1.8-1.5-.9z" fill="#fff"/></g><g clip-path="url(#a)"><path d="m1128.2 804.5 1.5.8-5 2.9-1.5-.8z" fill="#fff"/></g><g clip-path="url(#a)"><path d="m1132.2 802.2 1.4.8-3 1.8-1.5-.8z" fill="#fff"/></g><g clip-path="url(#a)"><path d="m1135.9 800.1 1.4.8-2.9 1.8-1.5-.9z" fill="#fff"/></g><g clip-path="url(#a)"><path d="m1139.6 798 1.5.8-3 1.7-1.5-.8z" fill="#fff"/></g><g clip-path="url(#a)"><path d="m1127.8 792.4s4.4 2.3 7.2 3.7 11 8.5 9.2 10.1-6.1 3.5-7.2 3.3c-1.2-.2-4-3.2-4.4-3.8-.4-.7-5.8-2.7-7.3-5-1.7-2.5 2.5-8.3 2.5-8.3" fill="#f7c0c1"/></g><g clip-path="url(#a)"><path d="m1134.9 814.4.1-22.7a2.144 2.144 0 0 1 1.1-1.9l26.8-15.4a2.333 2.333 0 0 1 2.3.1l1 .6h-.4a2.837 2.837 0 0 1 .4 1.3l-.1 22.7a2.144 2.144 0 0 1 -1.1 1.9l-26.8 15.4a1.445 1.445 0 0 1 -.7.2l-.4.4-1.4-.8v-.1a2.136 2.136 0 0 1 -.8-1.7" fill="#1e1e1e"/></g><g clip-path="url(#a)"><path d="m1136.1 792.3-.1 22.8a2.173 2.173 0 0 0 3.3 1.9l26.8-15.4a2.144 2.144 0 0 0 1.1-1.9l.1-22.7a2.173 2.173 0 0 0 -3.3-1.9l-26.8 15.4a1.889 1.889 0 0 0 -1.1 1.8" fill="#68435e"/></g><g clip-path="url(#a)"><path d="m1158.7 807.6 6.4-3.6v-2.8l-6.4 3.6z" fill="#1e1e1e"/></g><g clip-path="url(#a)"><path d="m1141.5 817.6 6.3-3.7v-2.7l-6.3 3.6z" fill="#1e1e1e"/></g><g clip-path="url(#a)"><path d="m1150.3 796.7c0 1.3 1.2 1.7 2.6.9a5.068 5.068 0 0 0 2.6-3.9c0-1.3-1.2-1.7-2.6-.9a5.517 5.517 0 0 0 -2.6 3.9" fill="#fff"/></g><g clip-path="url(#a)"><path d="m1092.4 771.1c-1.7-11.9-1.6-22.2 4.9-26.5 4.7-3.1 7.5 9.5 8.8 19 .3 2.3 2.4 12.7 3 15.1 3.2.8 20.3 11.9 22.4 13.9-.5 1.1-4.5 4-5.7 10.5-7.1-1.6-18.3-8.5-25.8-12.3-5.6-2.8-6.8-14.1-7.6-19.7" fill="#e9e9e9"/></g><g clip-path="url(#a)"><path d="m1111 727.1c1.2 4 .3 5.3.3 10.2 0 3.1 2.4 4.5 4.9 4.9a8.457 8.457 0 0 0 4.3-.4c2.9-1.2 1.8-3.5 1.5-4.7a13.285 13.285 0 0 1 .2-3.2c.3-1.6.6-3.3.6-3.3l-7.1-8c0 .1-5.9.5-4.7 4.5" fill="#f3aab6"/></g><g clip-path="url(#a)"><path d="m1125.4 709.8s6.4 3.3 6.7 9 0 5.8-.7 7.9c-.7 2-.4 5.6-2.2 8.7-1.7 3.2-3.7 5.3-5.4 5.4-1.3.1-7.3-1-10.3-5.5-.8-1.2-.9-4-1.2-5.5-1.5-6.8-3-13.1.9-18 3-3.4 9.1-3.8 12.2-2" fill="#f6bdbe"/></g><g clip-path="url(#a)"><path d="m1111.1 711.6c2.2-3 6.4-2.7 6.4-2.7a13.683 13.683 0 0 1 7.4.2c4.2 1.2 5.8 4.1 7 6.4 1.7 3.3.3 4.4.3 4.4 0-.2-.3-.9-1.2-.5-1 .4-.7.8-3.1 1.4-7.1 1.6-8.8-1.5-9.7 1.5-1.4 4.4-2.3 5.3-2.3 5.3l-1.8-3.3a2.009 2.009 0 0 0 -2.2.3 37.066 37.066 0 0 0 .3 4.7s-3-.8-4-7c-.4-2.5-1.2-5.2 2.9-10.7" fill="#363a6b"/></g></g><g clip-path="url(#a)"><g clip-path="url(#p)"><path d="m1118.3 726.7-7.1-6.3-6.5 7.3 7.2 6.3z" fill="url(#q)"/></g></g><g clip-path="url(#a)"><g clip-path="url(#a)"><path d="m1113.3 725.5s-.6-1.4-1.7-1.2c-1.7.3-.3 3.3-.2 3.6.1.4 1.2.6 1.5-.1.4-.7-.6-1.7.4-2.3" fill="#f3aab6"/></g><g clip-path="url(#a)"><path d="m1128.3 732.3c.3.2.9 0 1.4-.5s.7-1.1.4-1.4-.9 0-1.4.5c-.5.6-.7 1.2-.4 1.4" fill="#f3aab6"/></g><g clip-path="url(#a)"><path d="m1125.3 727.8a18.317 18.317 0 0 0 -3.9.9c-.5.2-.3.9.2.7a15.4 15.4 0 0 1 3.7-.9c.5 0 .5-.8 0-.7" fill="#333a6b"/></g><g clip-path="url(#a)"><path d="m1129.7 727.1c.6-.4 1.6-1.3 2.3-1.3.5-.1.5-.8 0-.8a7.756 7.756 0 0 0 -2.7 1.4c-.4.3 0 1 .4.7" fill="#333a6b"/></g><g clip-path="url(#a)"><path d="m1126.9 736.4a5.431 5.431 0 0 1 -3.4 1.2.3.3 0 1 0 0 .6 5.746 5.746 0 0 0 3.8-1.4.285.285 0 1 0 -.4-.4" fill="#ee7e9d"/></g><g clip-path="url(#a)"><path d="m1126.3 734.7a1.49 1.49 0 0 0 1.2-1.2l.8-4.5a.636.636 0 0 0 -.8-.8 1.49 1.49 0 0 0 -1.2 1.2l-.8 4.5a.662.662 0 0 0 .8.8" fill="#f197b0"/></g><g clip-path="url(#a)"><path d="m1126 735.2 1.3-.4a1.381 1.381 0 0 0 1-1.3c0-.7-.6-1-1.4-.8l-.6.2a1.937 1.937 0 0 0 -1.3 1.7c0 .6.5.8 1 .6" fill="#f197b0"/></g></g><g clip-path="url(#a)"><g clip-path="url(#r)"><path d="m1126.6 735.4 2.4-5.9-3.9-.4-2.4 6z" fill="url(#s)"/></g></g><g clip-path="url(#a)"><g clip-path="url(#a)"><path d="m1120.7 733.7c-.1.5.6.9 1.6.8 1 0 1.9-.5 2-.9.1-.5-.6-.9-1.6-.8-1 0-1.9.4-2 .9" fill="#f3aab6"/></g><g clip-path="url(#a)"><path d="m1130.3 729.2c-.3.7-.7 1.2-1 1.2s-.3-.6 0-1.3.7-1.2 1-1.2c.2 0 .2.6 0 1.3" fill="#fff"/></g><g clip-path="url(#a)"><path d="m1122.2 732.4c0-.3.1-.8.1-1.1.1-.6.5-1.3.9-1.3.5 0 .6.5.6 1.1-.1.8-.2 1.1-.4 1.3a1.65 1.65 0 0 0 -1.2 0" fill="#fff"/></g><g clip-path="url(#a)"><path d="m1129.5 729.3c-.1.3-.2.6-.1.7.1 0 .3-.2.5-.5.1-.3.2-.6.1-.7-.1 0-.3.2-.5.5" fill="#6263a9"/></g><g clip-path="url(#a)"><path d="m1123 731.2c-.1.3-.2.6-.1.7.1 0 .3-.2.5-.5.1-.3.2-.6.1-.7-.2 0-.4.2-.5.5" fill="#6263a9"/></g><g clip-path="url(#a)"><path d="m27.4 625.5v66.9l89.5 51.7v-67z" fill="#ed78a0"/></g><g clip-path="url(#a)"><path d="m116.9 680.5v63.6l6-3.5v-63.6z" fill="#f2a5c3"/></g><g clip-path="url(#a)"><path d="m284.1 583.7v63.6l6-3.5v-63.6z" fill="#f2a5c3"/></g><g clip-path="url(#a)"><path d="m290.1 576.9-8.9 5.1-86.5-50v63.6l31.5 18.3-109.3 63.2v3.4l112.2-65 55 31.8v-63.6l6-3.5z" fill="#ed78a0"/></g><g clip-path="url(#a)"><path d="m200.6 525.2-173.2 100.3 89.5 51.6 173.2-100.2z" fill="#f2a5c3"/></g><g clip-path="url(#a)"><path d="m214.7 598-22-12.7a2.967 2.967 0 0 0 -2.6 0l-55.5 32.2-2.5.6v1.2a.824.824 0 0 0 .5.8l22.5 13a2.967 2.967 0 0 0 2.6 0l57.4-33.4a1.035 1.035 0 0 0 .5-.7v-1.3z" fill="#c4c8d7"/></g><g clip-path="url(#a)"><path d="m132.6 618.8 22.5 13a2.967 2.967 0 0 0 2.6 0l57.4-33.4a.8.8 0 0 0 0-1.5l-22.5-13a2.967 2.967 0 0 0 -2.6 0l-57.4 33.4a.8.8 0 0 0 0 1.5" fill="#d9d9e7"/></g><g clip-path="url(#a)"><path d="m212.7 589.5s-7.8-4.6-8.5-5.1c-1.6-1.2-1.2-1.9-.6-2.7a10.352 10.352 0 0 1 8.8-2.7c4.4.8 8.3 5.6 8.6 6.7s0 1.9-1.6 2.8c-1.7.7-4.2 2.1-6.7 1" fill="#e4e8f5"/></g><g clip-path="url(#a)"><path d="m156.3 588-16.6-9.6a4.788 4.788 0 0 1 -2.3-4.9l3.9-26.2-9.5 5.5-15.8 33.2a4.542 4.542 0 0 0 1.9 5.9l15 8.7a10.944 10.944 0 0 0 10.8 0l12.6-7.3a3.017 3.017 0 0 0 0-5.3" fill="#c3c7d7"/></g><g clip-path="url(#a)"><path d="m156.2 591.7-12.6 7.3a10.944 10.944 0 0 1 -10.8 0l-13.9-8a3.511 3.511 0 0 1 -1.4-4.4l16.2-34.2 9.5-5.5-3.9 26.2a4.788 4.788 0 0 0 2.3 4.9l14.6 8.4a3.017 3.017 0 0 1 0 5.3" fill="#dadae8"/></g><g clip-path="url(#a)"><path d="m170.5 541.9-1.7-55.4 1.3-1.9-2.3-1.1a2.368 2.368 0 0 0 -1.8.2l-70.4 40.7a5.756 5.756 0 0 0 -2.6 4.8l1.7 56.6v1.5a2.715 2.715 0 0 0 1.5 2.7l2.3 1 1.4-2.1 66.9-38.6a8.123 8.123 0 0 0 3.7-6.7z" fill="#aad9e6"/></g><g clip-path="url(#a)"><path d="m95.3 530.2 1.8 58.1c.1 2.5 1.9 3.5 4 2.3l68.2-39.4a8.123 8.123 0 0 0 3.7-6.7v-1.5l-75.9 43.8z" fill="#d2d2e2"/></g><g clip-path="url(#a)"><path d="m163.6 615.4c4.4 1.7 7 5.4 5.9 8.3-1.1 2.8-5.6 3.7-9.9 2-4.4-1.7-7-5.4-5.9-8.3s5.6-3.7 9.9-2" fill="#873523"/></g><g clip-path="url(#a)"><path d="m168.4 484.8-70.4 40.6a5.756 5.756 0 0 0 -2.6 4.8l1.7 56.6 75.9-43.8-1.7-56.6c-.1-1.8-1.4-2.5-2.9-1.6" fill="#944492"/></g><g clip-path="url(#a)"><path d="m168.6 488.6c0-.3-.4-.5-.7-.4l-68.8 40.3a2.772 2.772 0 0 0 -1.3 2.3l1.5 48.6a1.321 1.321 0 0 0 2 1.1l67.1-39.4a3.4 3.4 0 0 0 1.7-3z" fill="#53bfd4"/></g><g clip-path="url(#a)"><path d="m156.2 591.7-12.6 7.3a10.944 10.944 0 0 1 -10.8 0l-13.9-8 22.7-13 14.6 8.4a3.017 3.017 0 0 1 0 5.3" fill="#eeeff4"/></g><g clip-path="url(#a)"><path d="m212.8 580.2s-6.6.6-8.9 1.2-4-1.8-6.9-9.1a37.847 37.847 0 0 1 -2-9.6c-1-10.4 3-13.4 12.8-10.3 10.9 3.4 5 27.8 5 27.8" fill="#873523"/></g><g clip-path="url(#a)"><path d="m201.7 580.8a2.319 2.319 0 0 0 2.2.6c2.3-.6 8.9-1.2 8.9-1.2s.4-1.5.8-3.9a13.05 13.05 0 0 0 -11.9 4.5" fill="#712b1b"/></g><g clip-path="url(#a)"><path d="m221.3 586.5a128.705 128.705 0 0 1 -2.9-13.6l-9.4 1.6s-1.3 12.8-1.3 17.2c-.1 4.4 16.6 3.6 13.6-5.2" fill="#873523"/></g><g clip-path="url(#a)"><path d="m221 573.4c1.9-3 2.8-8.6 3.3-11.9 1.7-12.4-5.1-17.5-16.7-17.4-9-.9-12.3 3.7-13.5 9.7-1.5 7.2 2.6 5.3 7.5 10.5 2.8 2.9-1 11.9 7.3 13.9 4.6-.2 9.3-.2 12.1-4.8" fill="#433636"/></g><g clip-path="url(#a)"><path d="m233.6 684.1a1.991 1.991 0 0 1 1.8-.2l2.3 1-2.7 7.3-2.5-1.1a2.356 2.356 0 0 1 -1.1-2 5.671 5.671 0 0 1 2.2-5" fill="#76757d"/></g><g clip-path="url(#a)"><path d="m235.9 685.2c1.4-.9 2.7 0 2.9 1.8a5.671 5.671 0 0 1 -2.2 5c-1.4.9-2.7.1-2.9-1.8a5.561 5.561 0 0 1 2.2-5" fill="#5c5c64"/></g><g clip-path="url(#a)"><path d="m182 731.5a6.594 6.594 0 0 1 2.9-5.1 2.046 2.046 0 0 1 2.1-.2l2.7 1.7-4.3 7.1-2.5-1.6a2.187 2.187 0 0 1 -.9-1.9" fill="#76757d"/></g><g clip-path="url(#a)"><path d="m184.6 733.2c0 1.9 1.3 2.6 2.9 1.7a6.439 6.439 0 0 0 2.9-5.1c0-1.9-1.3-2.6-2.9-1.7a6.439 6.439 0 0 0 -2.9 5.1" fill="#5c5c64"/></g><g clip-path="url(#a)"><path d="m269.8 715.1a3.4 3.4 0 0 1 6.8-.2v2.1h-.6a3.363 3.363 0 0 1 -5.6 0h-.6z" fill="#76757d"/></g><g clip-path="url(#a)"><path d="m269.8 717a3.4 3.4 0 1 0 3.4-3.4 3.372 3.372 0 0 0 -3.4 3.4" fill="#5c5c64"/></g><g clip-path="url(#a)"><path d="m184.3 695.7a2.046 2.046 0 0 1 2.1.2 6.439 6.439 0 0 1 2.9 5.1 1.95 1.95 0 0 1 -.8 1.8l-2.4 1.7-4.2-7.2z" fill="#76757d"/></g><g clip-path="url(#a)"><path d="m181.1 699.3a6.594 6.594 0 0 0 2.9 5.1c1.6.9 2.9.2 2.9-1.7a6.594 6.594 0 0 0 -2.9-5.1c-1.6-1-2.9-.2-2.9 1.7" fill="#5c5c64"/></g><g clip-path="url(#a)"><path d="m237.6 738c.1-.1.2.1.3.5a23.232 23.232 0 0 1 .6 5.2c0 1.3-.1 2-.3 2l-3.8.4-.7-7.7z" fill="#76757d"/></g><g clip-path="url(#a)"><path d="m234.1 738.9a23.232 23.232 0 0 1 .6 5.2c0 1.9-.3 2.5-.6 1.5a23.232 23.232 0 0 1 -.6-5.2c0-1.9.3-2.5.6-1.5" fill="#5c5c64"/></g><g clip-path="url(#a)"><path d="m226.5 706.8-28.9 8.6.4-.4-13.5 14-1.9-1.9 13.6-13.9.1-.1.3-.2 27.5-12.5z" fill="#c3c7d7"/></g><g clip-path="url(#a)"><path d="m224.1 706.8-27.6-12.6h.8l-13.6 3.7-.6-2.5 13.6-3.7.3-.1.5.1 29 8.7z" fill="#c3c7d7"/></g><g clip-path="url(#a)"><path d="m222 702.3 9.4-18.1.3-.8.8-.1 3.5-.2.2 2.6-3.5.2 1.1-.8-5.3 19.7z" fill="#c3c7d7"/></g><g clip-path="url(#a)"><path d="m225.3 699.9 33.7 2.4.4.1.2.1 16.2 8.9-1.2 2.2-16.2-8.8.6.1-33.7 2.4z" fill="#c3c7d7"/></g><g clip-path="url(#a)"><path d="m228.9 702.2 6.3 19.4.1.4v.1l2.4 18.2-2.6.5-4.9-17.7.2.4-8.7-18.5z" fill="#c3c7d7"/></g><g clip-path="url(#a)"><path d="m218.9 708.2a14.4 14.4 0 0 0 12.8 0c3.5-2 3.5-5.3 0-7.4a14.4 14.4 0 0 0 -12.8 0c-3.5 2-3.5 5.3 0 7.4" fill="#c3c7d7"/></g><g clip-path="url(#a)"><path d="m218.9 704.9a14.4 14.4 0 0 0 12.8 0c3.5-2 3.5-5.3 0-7.4a14.4 14.4 0 0 0 -12.8 0c-3.6 2-3.5 5.4 0 7.4" fill="#d8dae5"/></g><g clip-path="url(#a)"><path d="m219.4 700.4v-9.9h1.3c.1-.1.3-.2.4-.3a9.32 9.32 0 0 1 8.3 0c.1.1.3.2.4.3h1.3v9.9a3 3 0 0 1 -1.7 2.4 9.32 9.32 0 0 1 -8.3 0 2.87 2.87 0 0 1 -1.7-2.4" fill="#76757d"/></g><g clip-path="url(#a)"><path d="m221.1 692.9a9.32 9.32 0 0 0 8.3 0c2.3-1.3 2.3-3.5 0-4.8a9.32 9.32 0 0 0 -8.3 0c-2.2 1.4-2.2 3.5 0 4.8" fill="#5c5c64"/></g><g clip-path="url(#a)"><path d="m220.4 689.7v-14.6h1.1c.1-.1.2-.1.3-.2a7.837 7.837 0 0 1 7 0c.1.1.2.1.4.2h1.1v14.6a2.4 2.4 0 0 1 -1.5 2 7.837 7.837 0 0 1 -7 0 2.173 2.173 0 0 1 -1.4-2" fill="#c3c7d7"/></g><g clip-path="url(#a)"><path d="m221.8 677.2a7.836 7.836 0 0 0 7 0c1.9-1.1 1.9-2.9 0-4a7.836 7.836 0 0 0 -7 0c-1.9 1.1-1.9 2.9 0 4" fill="#d8dae5"/></g><g clip-path="url(#a)"><path d="m196.5 672.3a3.062 3.062 0 0 0 1.8 2.5l30.7 17.7a14.119 14.119 0 0 0 5.7 1.8 12.371 12.371 0 0 0 4.3-.1 9.673 9.673 0 0 0 3.5-1.2l36.5-21.1a4.066 4.066 0 0 0 2.3-3.3s.6-6.1 0-9.6a10.493 10.493 0 0 0 -.7-2.3 5.755 5.755 0 0 0 -1.5-1.9 22 22 0 0 0 -3.7-2.3c-3.7-2-18.5-8.3-25.5-9.2-7.1-.9-8.7-.7-8.7-.7l-40.8 23-3.1 1.8a29.059 29.059 0 0 0 -.8 4.9" fill="#53bfd4"/></g><g clip-path="url(#a)"><path d="m197.3 667.4.4-.6a54.351 54.351 0 0 1 8.6.7c7.1.9 21.9 7.2 25.5 9.2a19.425 19.425 0 0 1 3.8 2.4 8.331 8.331 0 0 0 6.1 1c1.5-.2 33.9-18.8 37.4-21 1.4-.8 1.7-1.7 1.5-2.4a10.5 10.5 0 0 1 .7 2.3c.6 3.5 0 9.6 0 9.6a4.066 4.066 0 0 1 -2.3 3.3l-36.5 21.1a11.929 11.929 0 0 1 -4.4 1.3h-.6a14.317 14.317 0 0 1 -2.9-.1 13.645 13.645 0 0 1 -5.7-1.8l-30.7-17.7a3.062 3.062 0 0 1 -1.8-2.5 42.18 42.18 0 0 1 .9-4.8" fill="#53bfd4"/></g><g clip-path="url(#a)"><path d="m203.1 712.3s1.1-.1 1.8 2.6 2.4 4.6.6 6.2-7 3.5-9.2 3.2a24.626 24.626 0 0 1 -4.4-1c-.7-.2-16.9-5.3-16.9-5.3s-1.4-1.4-1.1-2.4a5.582 5.582 0 0 1 3.4-3.6c.5-.3 8.5-.7 10.6-.9 2.2-.1 8.2-2.5 8.2-2.5z" fill="#3d2927"/></g><g clip-path="url(#a)"><path d="m202 704.8v6.9a12.539 12.539 0 0 1 -5.8 1.5 5.6 5.6 0 0 1 -4-2.7v-7.7z" fill="#873523"/></g><g clip-path="url(#a)"><path d="m241.9 634.5a4.455 4.455 0 0 1 4.1 4.4c.1 4.5-.1 11.7-2 15.2-2.9 5.2-6.3 8.3-15.5 11.2-9.3 2.9-26.8 1.8-29.9 1.9l.8-.1s1.7 3.4 1.7 11.8a184.393 184.393 0 0 0 1 21.3l.3 3a4.621 4.621 0 0 1 -2 4.3l-2 1.3a4.521 4.521 0 0 1 -5.1-.1 4.822 4.822 0 0 1 -1.9-2.9l-9.9-34.1c-.1-.3 0-.5-.1-.8a13.311 13.311 0 0 1 3.3-15.9c3.6-2.7 24.3-13.7 26.3-14.7a.367.367 0 0 1 .3-.1c1.6-.7 15.3-6.6 16.4-6.8.9-.2 9.1.6 14.2 1.1" fill="#934492"/></g><g clip-path="url(#a)"><path d="m204.2 587.7c-2.2-.4-7.2 1.1-9.9 6.3-2.7 5.1-6.9 20.4-7.6 22.7a16.02 16.02 0 0 0 -.7 4.2s-15.3-3.3-17.7-4.2c-2.4-1-3.2 7-2.5 9.4.7 2.5 21.4 9.7 24.4 8.9s8.8-13.3 10.4-19.5c.6-2.5-.2 2.8 1 4.9s4.6 13.6 4.5 18-7.3 7.8 2.7 11.9c13.4 5.5 28.8 8 37.2-1.6 1.8-2.1-2.2-35.6-6.6-46.5s-6.9-12.4-6.9-12.4c-5.8-6.3-10.9-7-13.9-7.3" fill="#e73076"/></g><g clip-path="url(#a)"><path d="m240.9 682.3 37.2-10.5c3-.9 5.9-4.6 6.5-8.3l11.8-82.3c.6-3.7-5-9.7-7.9-8.8l-37.2 20.5c-3 .9-5.9 4.6-6.5 8.3l-2.6 13 .6 6.2-1.3 18.9c-.5 7-3.9 18.1-5.6 24.9l-4 16.3c-.5 3.6 6.1 2.7 9 1.8" fill="#53bfd4"/></g><g clip-path="url(#a)"><path d="m321.3 322.5v173.2l-52.4 30.7v-173.3z" fill="#53bfd4"/></g><g clip-path="url(#a)" opacity=".3"><g clip-path="url(#t)" opacity=".5"><g clip-path="url(#u)"><path d="m321.3 388.1v24.4l-52.4-29v-24.5z" fill="#fff"/></g></g><g clip-path="url(#t)" opacity=".5"><g clip-path="url(#v)"><path d="m321.3 416.3v12.2l-52.4-29.1v-12.2z" fill="#fff"/></g></g></g><g clip-path="url(#a)"><path d="m331.3 305.1-69.6 40.2v196.4l3.4-2 61.1-35.3 1.7-1 3.4-2zm-62.4 157.4v-109.4l52.4-30.6v109.4z" fill="#ed78a0"/></g><g clip-path="url(#a)"><path d="m331.3 501.5v-70.6l-69.6 40.2v70.6z" fill="#934492"/></g><g clip-path="url(#a)"><path d="m324.5 313.1-62.8 36.3v192.4l-3.4 5.9-3.4-2v-200.2l76.4-44.2 3.4 2-3.4 198.3-3.4 5.9-3.4-2z" fill="#5f2468"/></g><g clip-path="url(#a)"><path d="m327.9 315-62.9 36.3v192.5l-6.7 3.9v-200.3l76.4-44.1v200.3l-6.8 3.9z" fill="#934492"/></g><g clip-path="url(#a)"><path d="m260.4 458.4c0 1 .7 1.5 1.6.9a3.72 3.72 0 0 0 1.6-2.8c0-1-.7-1.5-1.6-.9a3.56 3.56 0 0 0 -1.6 2.8" fill="#d9d9d9"/></g><g clip-path="url(#a)"><path d="m260.7 459.3 3.7 4.7 4.5-7.6-5.8-1z" fill="#d9d9d9"/></g><g clip-path="url(#a)"><path d="m263.7 462.1c0 2 1.4 2.8 3.1 1.8a6.922 6.922 0 0 0 3.1-5.4c0-2-1.4-2.8-3.1-1.8a6.922 6.922 0 0 0 -3.1 5.4" fill="#fff"/></g><g clip-path="url(#a)"><path d="m554.7 287.1-44.1 26v-107.7l44.1-26.1z" fill="#53bfd4"/></g><g clip-path="url(#a)" opacity=".5"><g clip-path="url(#w)"><path d="m532.6 195.7 8.1-4.9-11 102.9-8.1 4.8z" fill="#fff"/></g></g><g clip-path="url(#a)" opacity=".5"><g clip-path="url(#x)"><path d="m541.4 190.4 3-1.9-10.9 102.9-3.2 1.9z" fill="#fff"/></g></g><g clip-path="url(#a)"><path d="m558.5 285-50 35.4-5-3v-3.2l55-32.5z" fill="#5f2468"/></g><g clip-path="url(#a)"><path d="m563.5 288-55 32.4v-3.2l55-32.5z" fill="#5f2468"/></g><g clip-path="url(#a)"><path d="m563.5 284.7-55 32.5-5-3 55-32.5z" fill="#ed78a0"/></g><g clip-path="url(#a)"><path d="m550.5 180v105l-41.5 24.5v-105zm-3 4.7-35.6 21v99l35.6-21z" fill="#5f2468"/></g><g clip-path="url(#a)"><path d="m551.7 180.7v105l-41.4 24.5v-105zm-3 4.7-35.6 21v99l35.6-21z" fill="#934492"/></g><g clip-path="url(#a)"><path d="m507.3 203.9v108l2.1 1.3.8-3v-105l41.5-24.5v105l2.1 1.3.8-3 2.1-106.8-2.1-1.2z" fill="#ed78a0"/></g><g clip-path="url(#a)"><path d="m553.8 182v105l2.9-1.8v-108l-22.3 13.2v3z" fill="#934492"/></g><g clip-path="url(#a)"><path d="m509.4 313.2 2.9-1.8v-105l22.1-13v-3l-25 14.8z" fill="#934492"/></g><g clip-path="url(#a)"><path d="m471.1 337-44.2 26.1v-107.8l44.2-26z" fill="#53bfd4"/></g><g clip-path="url(#a)" opacity=".5"><g clip-path="url(#y)"><path d="m449 245.6 8-4.9-10.9 103-8.2 4.8z" fill="#fff"/></g></g><g clip-path="url(#a)" opacity=".5"><g clip-path="url(#z)"><path d="m457.7 240.3 3-1.9-10.9 102.9-3.2 1.9z" fill="#fff"/></g></g><g clip-path="url(#a)"><path d="m474.8 334.9-49.9 35.5-5.1-3v-3.3l55-32.4z" fill="#5f2468"/></g><g clip-path="url(#a)"><path d="m479.9 337.9-55 32.5v-3.3l55-32.5z" fill="#5f2468"/></g><g clip-path="url(#a)"><path d="m479.9 334.6-55 32.5-5.1-3 55-32.4z" fill="#ed78a0"/></g><g clip-path="url(#a)"><path d="m466.8 230v105l-41.4 24.5v-105zm-2.9 4.7-35.6 21v99l35.6-21z" fill="#5f2468"/></g><g clip-path="url(#a)"><path d="m468 230.7v105l-41.4 24.5v-105zm-2.9 4.7-35.6 21v99l35.6-21z" fill="#934492"/></g><g clip-path="url(#a)"><path d="m423.6 253.9v108l2.2 1.2.8-3v-105l41.4-24.4v105l2.1 1.2.9-3 2.1-106.7-2.1-1.3z" fill="#ed78a0"/></g><g clip-path="url(#a)"><path d="m470.1 231.9v105l3-1.7v-108l-22.4 13.2.1 2.9z" fill="#934492"/></g><g clip-path="url(#a)"><path d="m425.8 363.1 2.9-1.7v-105l22.1-13.1-.1-2.9-24.9 14.7z" fill="#934492"/></g><g clip-path="url(#a)"><path d="m1006 578.5-11.7-6.7c-3.2-1.8-4.1.3-5.3 2.6l-10.4 19.8c-1.2 2.3-2.2 3.9.4 5.5l11.3 6.5c1.8 1.2 3 1.4 4.3-1.1l10.8-20.6c1.3-2.1 3.1-4.4.6-6" fill="#2b4a99"/></g><g clip-path="url(#a)"><path d="m1005.1 578-11.7-6.7c-3.2-1.8-4.1.3-5.3 2.6l-10.4 19.8c-1.2 2.3-2.2 3.9.4 5.5l11.3 6.5c1.8 1.2 3 1.4 4.3-1.1l10.8-20.6c1.3-2.2 3.1-4.5.6-6" fill="#5367ad"/></g><g clip-path="url(#a)"><path d="m978.6 595.2 14 8 12.4-23.1-14-8z" fill="#53bfd4"/></g><g clip-path="url(#a)"><path d="m982.6 600.2 3.2 1.8.7-1.2-3.3-1.8z" fill="#fff"/></g><g clip-path="url(#a)"><path d="m933.7 614.9s2.3 2.5 9.7-1.2c8.6-4.3 13.6-5.3 13.6-5.3l-1.4-6.5-14.2.8z" fill="#e9e9e9"/></g><g clip-path="url(#a)"><path d="m953.3 578a12.07 12.07 0 0 0 -7.2 3.1c-3.6 3.1-11.8 20.3-13 22.6-1.2 2.2-4.5 7 .2 10.9 3.8 3.2 8.4-4 9.9-6.5 1.9-3.2 7.2-13.2 7.2-13.2z" fill="#e9e9e9"/></g><g clip-path="url(#a)"><path d="m959.6 722.5c3-1.5 5.9-3.3 4.9-5a3.168 3.168 0 0 0 -2.3-1.3c-2.8.9-4.2 1.5-4.2 1.5s.3-16.1 1.5-22.7c.4-2.2-10.1-2.3-10.1-2.3-.4 1.5-.7 15 0 23.3a26.393 26.393 0 0 1 -.1 5.9c.7.3 2.2 1 3.3 1.5 1.5.6 4 .6 7-.9" fill="#f7c0c1"/></g><g clip-path="url(#a)"><path d="m949.2 726.2c1 2.4 3.3 2.2 8 .5a38.3 38.3 0 0 0 10.5-5.4c3-2.2 3-2.5 3.4-4 .5-2.1-2.5-3.2-7.5-1.7a10.264 10.264 0 0 1 -1.4.4 3.168 3.168 0 0 1 2.3 1.3c.9 1.7-1.9 3.5-4.9 5s-5.5 1.5-7 .8c-1.1-.5-2.6-1.1-3.3-1.5-.3 2.2-.7 3.2-.1 4.6" fill="#33211e"/></g><g clip-path="url(#a)"><path d="m963.8 734.7c1 2.4 3.3 2.2 8 .5a38.3 38.3 0 0 0 10.5-5.4c2.9-2.2 3-2.5 3.4-4 .5-2.1-2.5-3.2-7.5-1.7a10.264 10.264 0 0 1 -1.4.4 3.168 3.168 0 0 1 2.3 1.3c.9 1.7-1.9 3.5-4.9 5s-5.5 1.5-7 .8c-1.1-.5-2.6-1.1-3.3-1.5-.3 2.2-.7 3.1-.1 4.6" fill="#33211e"/></g><g clip-path="url(#a)"><path d="m979.1 725.9a3.168 3.168 0 0 0 -2.3-1.3 40.569 40.569 0 0 0 -4.1 1.5s.7-12.9 1.6-22.9c1.3-8.7 2.8-19.3 2.7-24.8-.1-4.9.6-20.4-.8-31.6a65.181 65.181 0 0 1 -8.4 1.6c-7.2 1-15.2 1.5-22.2-.6-.1.6-.2 1.1-.3 1.7-.4 3.3 1.4 7 1.9 11.6.7 5.8.5 10.5.9 15.3 1.1 13.3 1.2 23.2 1.2 23.2a7.983 7.983 0 0 0 9.8.9c1.2-5.6 1.1-19.8 1.3-22.9s-.1-19.5-.1-19.5 3.9 19.3 3.8 23.2c-.2 5.5.6 14 .3 19.3-.3 6.7-.6 18-.1 23.8a26.393 26.393 0 0 1 -.1 5.9c.7.3 2.2 1 3.3 1.5 1.5.7 4 .7 7-.8 2.7-1.6 5.5-3.4 4.6-5.1" fill="#f7c0c1"/></g><g clip-path="url(#a)"><path d="m965 552.1c1.1.8 5.3 1.8 6.5 11.1.8 6.3-1.3 9-3 10.7-.7.7-3.6.8-3.6.8l.1 7a11.941 11.941 0 0 1 -8 0l-3.9-1.6a14.155 14.155 0 0 0 1.3-7.2c-.3-5.7-2.3-13.7-.9-16.7 2.5-5.6 8.4-6.2 11.5-4.1" fill="#f7c0c1"/></g><g clip-path="url(#a)"><path d="m965 579.8s4.7 2 6.2 5.2 6.7 12.2 4.4 17.1c-4.7 10.1-1.6 17.2-.9 18.9 8.7 22.5 6.8 53.9 6.8 53.9s-6.5 11.4-18 7.6a70.9 70.9 0 0 1 -20.2-10.9s-.9-35.9 1.7-42.5c3.9-9.9 3-15.3 2.8-17.6-1-8.2-.6-11 .2-17.5s5.1-14 5.1-14z" fill="#fff"/></g><g clip-path="url(#a)"><path d="m952 579.2s.6 2 4.6 3.2a14.467 14.467 0 0 0 11.5-.9c0-2.6-3.1-3.7-3.1-3.7a11.966 11.966 0 0 1 -7.6 0l-4-1.4z" fill="#e9e9e9"/></g><g clip-path="url(#a)"><path d="m971.8 560c-.3 3.2-2.9 4.2-5.3 6.6-2.3 2.4-3.6 4.8-8.7 8.4-1.9 1.3-1.4 11.7-5 19-3.8 7.8-1.6 9.2-1.6 9.2s-10.8-3.5-6.4-15.6c1.6-4.4 7.8-8 8-12.7.1-2.1-2.8-4.3-3.7-8.3-2.9-12.7 3-16.3 8.6-17.5 10.1-2.1 14.8 4.3 14.1 10.9" fill="#33211e"/></g><g clip-path="url(#a)"><path d="m969.1 564.5s-2.4-4.2-3.5 0a4.224 4.224 0 0 0 2.4 5.2z" fill="#f7c0c1"/></g><g clip-path="url(#a)"><path d="m952 572.5s-.1 2.7.4 3.3c.8.8 3.6 1.7 4.6 1.3a4.951 4.951 0 0 0 2.3-3 34.055 34.055 0 0 1 -7.3-1.6" fill="#74c8e1"/></g><g clip-path="url(#a)"><path d="m992.4 601.6 5.9-6.2a21.35 21.35 0 0 0 4.3-5.4c2 1.4 2.4 6.8-.3 9.6-2.8 2.9-5.5 5.6-5.5 5.6z" fill="#f7c0c1"/></g><g clip-path="url(#a)"><path d="m969.1 583.9c-2.4-.8-5 5.2-4.3 11.2.6 5.1 5.5 12.7 8.2 17.2 1.6 2.6 6.3 7.7 10.9 6.9 7.3-1.4 15.5-13.3 15.5-13.3s0-4.8-5.9-7.1c-4.8 4.1-8.6 7.1-8.6 7.1s-6.9-19.1-15.8-22" fill="#e9e9e9"/></g><g clip-path="url(#a)"><path d="m996.3 579 .1.2c-.7 2.3-2.1 2.2-2.1 2.2v-.3s1.3 0 2-2.1" fill="#d2ebf5"/></g><g clip-path="url(#a)"><path d="m994.4 576.9a7.923 7.923 0 0 0 -.1 4.2l-.1.1a8.518 8.518 0 0 1 0-4.5z" fill="#d2ebf5"/></g><g clip-path="url(#a)"><path d="m992.2 588c.1 0 1.4.1 2.1-2.2a9.57 9.57 0 0 0 .1-4.6l-.1.1a8.344 8.344 0 0 1 -.1 4.3c-.7 2.2-2 2.1-2 2.1z" fill="#d2ebf5"/></g><g clip-path="url(#a)"><path d="m992.1 587.9.1-.1a7.924 7.924 0 0 1 .1-4.2c.7-2.2 2-2.2 2-2.2v-.3c-.1 0-1.4 0-2.1 2.3a7.134 7.134 0 0 0 -.1 4.5" fill="#d2ebf5"/></g><g clip-path="url(#a)"><path d="m990 594.6c.1 0 1.4.1 2.1-2.2a9.57 9.57 0 0 0 .1-4.6l-.2.1a8.344 8.344 0 0 1 -.1 4.3c-.7 2.2-2 2.1-2 2.1z" fill="#d2ebf5"/></g><g clip-path="url(#a)"><path d="m989.9 594.5.1-.1a7.924 7.924 0 0 1 .1-4.2c.7-2.2 2-2.2 2-2.2v-.3c-.1 0-1.4 0-2.1 2.3a8.031 8.031 0 0 0 -.1 4.5" fill="#d2ebf5"/></g><g clip-path="url(#a)"><path d="m989.8 598.8a8.251 8.251 0 0 0 .1-4.3l.1-.1a8.341 8.341 0 0 1 -.1 4.6z" fill="#d2ebf5"/></g><g clip-path="url(#a)"><path d="m988 596.7-.2-.1c.7-2.3 2.1-2.3 2.1-2.3v.3c.1 0-1.2 0-1.9 2.1" fill="#d2ebf5"/></g><g clip-path="url(#a)"><path d="m991.8 586.4 1.2 1.2v-.2l-1.1-1.2z" fill="#d2ebf5"/></g><g clip-path="url(#a)"><path d="m993.4 581.6 1.1 1.2.1-.2-1.1-1.2z" fill="#d2ebf5"/></g><g clip-path="url(#a)"><path d="m992.7 582.4 1.8 2v-.2l-1.8-2z" fill="#d2ebf5"/></g><g clip-path="url(#a)"><path d="m991.9 584.8 1.8 2v-.2l-1.7-2z" fill="#d2ebf5"/></g><g clip-path="url(#a)"><path d="m992.2 583.5 2 2.3v-.3l-2-2.2z" fill="#d2ebf5"/></g><g clip-path="url(#a)"><path d="m994 579.8 1.1 1.2.1-.2-1.1-1.2z" fill="#d2ebf5"/></g><g clip-path="url(#a)"><path d="m994 578.2 1.8 2 .1-.2-1.8-2z" fill="#d2ebf5"/></g><g clip-path="url(#a)"><path d="m989.7 593 1.1 1.3.1-.3-1.1-1.2z" fill="#d2ebf5"/></g><g clip-path="url(#a)"><path d="m991.3 588.2 1.1 1.3v-.3l-1.1-1.2z" fill="#d2ebf5"/></g><g clip-path="url(#a)"><path d="m990.5 589 1.8 2 .1-.2-1.8-2z" fill="#d2ebf5"/></g><g clip-path="url(#a)"><path d="m989.7 591.5 1.8 1.9.1-.2-1.8-2z" fill="#d2ebf5"/></g><g clip-path="url(#a)"><path d="m990 590.2 2 2.2.1-.3-2-2.2z" fill="#d2ebf5"/></g><g clip-path="url(#a)"><path d="m989.1 594.8 1.1 1.3.1-.3-1.1-1.2z" fill="#d2ebf5"/></g><g clip-path="url(#a)"><path d="m988.4 595.6 1.8 2 .1-.2-1.8-2z" fill="#d2ebf5"/></g></g></svg>