<svg version="1.1" id="Layer_1" xmlns="http://www.w3.org/2000/svg" x="0" y="0" viewBox="0 0 60 60" xml:space="preserve"><style>.st0{fill:#fff}</style><path class="st0" d="M40.3 18.3L29.6 28.9 19.7 19c-.4-.4-1-.4-1.4 0s-.4 1 0 1.4l9.9 9.9-9.9 9.9c-.4.4-.4 1 0 1.4.2.2.5.3.7.3s.5-.1.7-.3l9.9-9.9 9.9 9.9c.2.2.5.3.7.3s.5-.1.7-.3c.4-.4.4-1 0-1.4L31 30.3l10.6-10.6c.4-.4.4-1 0-1.4s-1-.4-1.3 0z"/><path class="st0" d="M51 0H9C4 0 0 4 0 9v42c0 5 4 9 9 9h42c5 0 9-4 9-9V9c0-5-4-9-9-9zm7 51c0 3.9-3.1 7-7 7H9c-3.9 0-7-3.1-7-7V9c0-3.9 3.1-7 7-7h42c3.9 0 7 3.1 7 7v42z"/></svg>